<?xml version="1.0" encoding="UTF-8" standalone="no"?>
<!-- Created with Inkscape (http://www.inkscape.org/) -->

<svg
   width="800"
   height="480"
   version="1.1"
   viewBox="0 0 800 480"
   xml:space="preserve"
   id="svg14"
   sodipodi:docname="base_drawing.svg"
   inkscape:version="1.4.4 (dcaf3e7, 2026-05-05)"
   xmlns:inkscape="http://www.inkscape.org/namespaces/inkscape"
   xmlns:sodipodi="http://sodipodi.sourceforge.net/DTD/sodipodi-0.dtd"
   xmlns="http://www.w3.org/2000/svg"
   xmlns:svg="http://www.w3.org/2000/svg"><defs
     id="defs14" /><sodipodi:namedview
     id="namedview14"
     pagecolor="#505050"
     bordercolor="#eeeeee"
     borderopacity="1"
     inkscape:showpageshadow="0"
     inkscape:pageopacity="0"
     inkscape:pagecheckerboard="0"
     inkscape:deskcolor="#505050"
     inkscape:zoom="0.76165547"
     inkscape:cx="443.7702"
     inkscape:cy="634.14499"
     inkscape:window-width="2528"
     inkscape:window-height="1387"
     inkscape:window-x="1470"
     inkscape:window-y="25"
     inkscape:window-maximized="1"
     inkscape:current-layer="g14" /><g
     stroke-width="0"
     id="g14"><g
       font-family="'Google Sans Flex'"
       id="g7"><text
         x="617.70905"
         y="358.53989"
         font-size="18.667px"
         style="font-variant-caps:normal;font-variant-east-asian:normal;font-variant-ligatures:normal;font-variant-numeric:normal;font-variation-settings:'opsz' 144, 'wght' 500"
         xml:space="preserve"
         id="text1"><tspan
           x="617.70905"
           y="358.53989"
           fill="#000000"
           font-family="'Google Sans Flex'"
           font-size="18.667px"
           stroke-width="0"
           style="font-variant-caps:normal;font-variant-east-asian:normal;font-variant-ligatures:normal;font-variant-numeric:normal;font-variation-settings:'opsz' 144, 'wght' 500"
           id="tspan1">Feels like</tspan></text><text
         x="460.39111"
         y="66.921066"
         font-size="24px"
         style="font-variant-caps:normal;font-variant-east-asian:normal;font-variant-ligatures:normal;font-variant-numeric:normal;font-variation-settings:'opsz' 144, 'wght' 500"
         xml:space="preserve"
         id="text2"><tspan
           x="460.39111"
           y="66.921066"
           fill="#000000"
           font-family="'Google Sans Flex'"
           font-size="24px"
           stroke-width="0"
           style="font-variant-caps:normal;font-variant-east-asian:normal;font-variant-ligatures:normal;font-variant-numeric:normal;font-variation-settings:'opsz' 144, 'wght' 500"
           id="tspan2">mm</tspan></text><text
         x="604.52563"
         y="66.921074"
         font-size="24px"
         style="font-variant-caps:normal;font-variant-east-asian:normal;font-variant-ligatures:normal;font-variant-numeric:normal;font-variation-settings:'opsz' 144, 'wght' 500"
         xml:space="preserve"
         id="text3"><tspan
           x="604.52563"
           y="66.921074"
           fill="#000000"
           font-family="'Google Sans Flex'"
           font-size="24px"
           stroke-width="0"
           style="font-variant-caps:normal;font-variant-east-asian:normal;font-variant-ligatures:normal;font-variant-numeric:normal;font-variation-settings:'opsz' 144, 'wght' 500"
           id="tspan3">%</tspan></text><g
         font-size="16px"
         id="g6"><text
           x="425.18533"
           y="88.682945"
           style="font-variant-ligatures:normal;font-variant-caps:normal;font-variant-numeric:normal;font-variant-east-asian:normal;font-variation-settings:'opsz' 144, 'wght' 500"
           xml:space="preserve"
           id="text4"><tspan
             x="425.18533"
             y="88.682945"
             fill="#000000"
             font-family="'Google Sans Flex'"
             font-size="16px"
             stroke-width="0"
             style="font-variant-ligatures:normal;font-variant-caps:normal;font-variant-numeric:normal;font-variant-east-asian:normal;font-variation-settings:'opsz' 144, 'wght' 500"
             id="tspan4">Rain</tspan></text><text
           x="534.73199"
           y="88.682945"
           style="font-variant-ligatures:normal;font-variant-caps:normal;font-variant-numeric:normal;font-variant-east-asian:normal;font-variation-settings:'opsz' 144, 'wght' 500"
           xml:space="preserve"
           id="text5"><tspan
             x="534.73199"
             y="88.682945"
             fill="#000000"
             font-family="'Google Sans Flex'"
             font-size="16px"
             stroke-width="0"
             style="font-variant-ligatures:normal;font-variant-caps:normal;font-variant-numeric:normal;font-variant-east-asian:normal;font-variation-settings:'opsz' 144, 'wght' 500"
             id="tspan5">Humidity</tspan></text><text
           x="726.26501"
           y="88.666275"
           style="font-variant-ligatures:normal;font-variant-caps:normal;font-variant-numeric:normal;font-variant-east-asian:normal;font-variation-settings:'opsz' 144, 'wght' 500"
           xml:space="preserve"
           id="text6"><tspan
             x="726.26501"
             y="88.666275"
             fill="#000000"
             font-family="'Google Sans Flex'"
             font-size="16px"
             stroke-width="0"
             style="font-variant-ligatures:normal;font-variant-caps:normal;font-variant-numeric:normal;font-variant-east-asian:normal;font-variation-settings:'opsz' 144, 'wght' 500"
             id="tspan6">Max</tspan></text></g><text
         id="forecast_rain"
         x="455.62497"
         y="66.921066"
         font-size="48px"
         text-align="end"
         text-anchor="end"
         style="font-variant-caps:normal;font-variant-east-asian:normal;font-variant-ligatures:normal;font-variant-numeric:normal;font-variation-settings:'opsz' 144, 'wght' 500"
         xml:space="preserve"><tspan
           x="455.62497"
           y="66.921066"
           fill="#000000"
           font-family="'Google Sans Flex'"
           font-size="48px"
           stroke-width="0"
           style="font-variant-caps:normal;font-variant-east-asian:normal;font-variant-ligatures:normal;font-variant-numeric:normal;font-variation-settings:'opsz' 144, 'wght' 500"
           id="tspan7">0-12</tspan></text></g><text
       id="temp_main"
       x="772.13519"
       y="321.10077"
       font-size="166.52px"
       text-align="end"
       text-anchor="end"
       style="font-variant-caps:normal;font-variant-east-asian:normal;font-variant-ligatures:normal;font-variant-numeric:normal;font-variation-settings:'opsz' 144, 'wght' 500"
       xml:space="preserve"><tspan
         x="772.13519"
         y="321.10077"
         fill="#000000"
         font-family="'Google Sans Flex'"
         font-size="166.52px"
         stroke-width="0"
         style="font-variant-caps:normal;font-variant-east-asian:normal;font-variant-ligatures:normal;font-variant-numeric:normal;font-variation-settings:'opsz' 144, 'wght' 500"
         id="tspan8">25.8°</tspan></text><g
       font-family="'Google Sans Flex'"
       id="g13"><g
         text-anchor="end"
         id="g11"><text
           id="forecast_humidity"
           x="601.9292"
           y="66.87252"
           font-size="48px"
           text-align="end"
           style="font-variant-ligatures:normal;font-variant-caps:normal;font-variant-numeric:normal;font-variant-east-asian:normal;font-variation-settings:'opsz' 144, 'wght' 500"
           xml:space="preserve"><tspan
             x="601.9292"
             y="66.87252"
             fill="#000000"
             font-family="'Google Sans Flex'"
             font-size="48px"
             stroke-width="0"
             style="font-variant-ligatures:normal;font-variant-caps:normal;font-variant-numeric:normal;font-variant-east-asian:normal;font-variation-settings:'opsz' 144, 'wght' 500"
             id="tspan9">79</tspan></text><text
           id="temp_max"
           x="774.80542"
           y="66.872513"
           font-size="48px"
           text-align="end"
           style="font-variant-ligatures:normal;font-variant-caps:normal;font-variant-numeric:normal;font-variant-east-asian:normal;font-variation-settings:'opsz' 144, 'wght' 500"
           xml:space="preserve"><tspan
             x="774.80542"
             y="66.872513"
             fill="#000000"
             font-family="'Google Sans Flex'"
             font-size="48px"
             stroke-width="0"
             style="font-variant-ligatures:normal;font-variant-caps:normal;font-variant-numeric:normal;font-variant-east-asian:normal;font-variation-settings:'opsz' 144, 'wght' 500"
             id="tspan10">28°</tspan></text><text
           id="forecast_summary"
           x="768.08038"
           y="443.43683"
           font-size="48px"
           text-align="end"
           style="font-variant-ligatures:normal;font-variant-caps:normal;font-variant-numeric:normal;font-variant-east-asian:normal;font-variation-settings:'opsz' 144, 'wght' 500"
           xml:space="preserve"><tspan
             id="tspan11">Paasdfdsartly clodjkadudy.</tspan></text></g><text
         id="suburb"
         x="23.920702"
         y="447.85617"
         font-size="32px"
         style="font-variant-caps:normal;font-variant-east-asian:normal;font-variant-ligatures:normal;font-variant-numeric:normal;font-variation-settings:'opsz' 144, 'wght' 500"
         xml:space="preserve"><tspan
           x="23.920702"
           y="447.85617"
           fill="#000000"
           font-family="'Google Sans Flex'"
           font-size="32px"
           stroke-width="0"
           style="font-variant-caps:normal;font-variant-east-asian:normal;font-variant-ligatures:normal;font-variant-numeric:normal;font-variation-settings:'opsz' 144, 'wght' 500"
           id="tspan12">Greenslopes</tspan></text><text
         id="temp_feels_like"
         x="700.76538"
         y="358.06985"
         font-size="34.667px"
         style="font-variant-caps:normal;font-variant-east-asian:normal;font-variant-ligatures:normal;font-variant-numeric:normal;font-variation-settings:'opsz' 144, 'wght' 500"
         xml:space="preserve"><tspan
           x="700.76538"
           y="358.06985"
           fill="#000000"
           font-family="'Google Sans Flex'"
           font-size="34.667px"
           stroke-width="0"
           style="font-variant-caps:normal;font-variant-east-asian:normal;font-variant-ligatures:normal;font-variant-numeric:normal;font-variation-settings:'opsz' 144, 'wght' 500"
           id="tspan13">26.1°</tspan></text></g><g
       id="icon_container"
       transform="matrix(3.5,0,0,3.5,22,30)"
       style="fill:none"><rect
   width="96"
   height="96"
   style="font-variation-settings:'opsz' 144, 'wght' 500;fill:none"
   id="rect13" />


				 </g><g
       id="g1"
       transform="matrix(0.07847236,0,0,0.07847236,29.792684,356.46082)"
       style="fill:#000000"><path
         fill-rule="evenodd"
         clip-rule="evenodd"
         d="m 218.3,477.804 c -9.70667,0 -19.63,1.48 -28.04,4.74 -4.12667,1.59666 -9.17333,4.11666 -13.61667,8.18666 -4.46,4.09 -10.22333,11.65667 -10.22333,22.49 0,10.83334 5.76333,18.4 10.22333,22.48667 4.44334,4.07333 9.49,6.59 13.61667,8.19 8.41,3.26 18.33333,4.74 28.04,4.74 9.71,0 19.63,-1.48 28.04333,-4.74 4.12334,-1.6 9.17,-4.11667 13.61334,-8.19 4.46333,-4.08667 10.22666,-11.65333 10.22666,-22.48667 0,-10.83333 -5.76333,-18.4 -10.22666,-22.49 -4.44334,-4.07 -9.49,-6.59 -13.61334,-8.18666 C 237.93,479.284 228.01,477.804 218.3,477.804 Z"
         fill="#1c274c"
         id="path1"
         style="fill:#000000;stroke-width:0" /><path
         d="m 285.53,401.43733 c 5.5,-8.88 16.36333,-19.46333 32.66,-19.46333 16.29333,0 27.15667,10.58333 32.65667,19.46333 5.73666,9.26334 8.47,20.49334 8.47,31.58 0,11.08334 -2.73334,22.31334 -8.47,31.57667 -5.5,8.88 -16.36334,19.46333 -32.65667,19.46333 -16.29667,0 -27.16,-10.58333 -32.66,-19.46333 -5.73667,-9.26333 -8.47,-20.49333 -8.47,-31.57667 0,-11.08666 2.73333,-22.31666 8.47,-31.58 z"
         fill="#1c274c"
         id="path2"
         style="fill:#000000;stroke-width:0" /><path
         d="m 118.19133,381.974 c -16.29433,0 -27.157658,10.58333 -32.658658,19.46333 -5.73767,9.26334 -8.47034,20.49334 -8.47034,31.58 0,11.08334 2.73267,22.31334 8.47034,31.57667 5.501,8.88 16.364328,19.46333 32.658658,19.46333 16.29467,0 27.158,-10.58333 32.65867,-19.46333 5.73667,-9.26333 8.47,-20.49333 8.47,-31.57667 0,-11.08666 -2.73333,-22.31666 -8.47,-31.58 -5.50067,-8.88 -16.364,-19.46333 -32.65867,-19.46333 z"
         fill="#1c274c"
         id="path3"
         style="fill:#000000;stroke-width:0" /><path
         fill-rule="evenodd"
         clip-rule="evenodd"
         d="m 20.808332,121.55733 c -20.44566,0 -44.00733,5.957 -62.86766,22.20534 -19.552,16.84466 -31.29267,42.38833 -31.29267,75.71133 v 62.5 l 3.4e-4,0.0983 c 0.0383,9.79867 1.70166,29.404 7.29166,45.79167 1.82834,5.36333 4.74967,12.47333 9.628,18.88667 -9.46666,18.76666 -13.95333,38.12333 -15.99233,56.79 -1.70233,15.58666 -1.72533,31.94666 -1.45433,47.05333 -22.03467,7.65333 -44.849002,17.12667 -55.368002,23.92 -11.59867,7.49 -14.92867,22.96666 -7.438,34.56333 7.49066,11.6 22.96566,14.93 34.564,7.44 3.880662,-2.50667 15.329332,-7.74667 30.389662,-13.49667 2.296,15.97 6.94967,30.52 13.44767,43.74667 -5.19633,3.24 -9.78767,6.24 -13.44033,8.63 -1.39834,0.91333 -2.659,1.73667 -3.76334,2.45 -11.59866,7.49 -14.92866,22.96667 -7.438,34.56333 7.49067,11.6 22.96567,14.93 34.56434,7.44 1.37066,-0.88666 2.83166,-1.84 4.37333,-2.84666 4.37267,-2.85334 9.39633,-6.13334 14.86767,-9.48667 19.65066,20.08333 44.05466,35.58667 69.40499,47.24667 59.36067,27.30666 129.661338,36.79333 177.364668,36.79333 47.7,0 118.00333,-9.48667 177.36333,-36.79333 25.35,-11.66 49.75334,-27.16334 69.40334,-47.24667 5.47333,3.35333 10.49666,6.63333 14.86666,9.48667 1.54333,1.00666 3.00333,1.96 4.37333,2.84666 11.6,7.49 27.07334,4.16 34.56667,-7.44 7.49,-11.59666 4.16,-27.07333 -7.44,-34.56333 -1.10333,-0.71333 -2.36333,-1.53667 -3.76333,-2.45 -3.65334,-2.39 -8.24334,-5.39 -13.43667,-8.63 6.49667,-13.22667 11.15333,-27.77667 13.44667,-43.75 15.06666,5.75 26.52,10.99333 30.40333,13.5 11.59667,7.49 27.07333,4.16 34.56333,-7.44 7.49,-11.59667 4.16,-27.07333 -7.43666,-34.56333 -10.52334,-6.79333 -33.34334,-16.27 -55.38334,-23.92333 0.27334,-15.10667 0.25,-31.46667 -1.45333,-47.05 -2.03667,-18.66667 -6.52667,-38.02334 -15.99333,-56.79 4.88,-6.41334 7.8,-13.52334 9.63,-18.88667 5.59,-16.38733 7.25333,-35.993 7.29,-45.79167 l 0.003,-0.0983 v -62.49633 c 0,-33.323 -11.74333,-58.86634 -31.29333,-75.711 C 458.49967,127.518 434.93634,121.561 414.493,121.561 c -13.61666,0 -27.7,5.22467 -39.05666,10.355 -12.03667,5.43867 -24.61667,12.50467 -35.93,19.02 -2.43334,1.401 -4.79667,2.76933 -7.09334,4.09867 l -0.0667,0.0387 c -8.8,5.09734 -16.61,9.62067 -23.57,13.20634 -4.32333,2.22766 -7.67999,3.75433 -10.17999,4.67966 -1.05334,0.39034 -1.72667,0.58667 -2.07334,0.67867 -8.44666,-0.0467 -13.83,-0.73633 -21.60666,-1.73267 -1.66667,-0.21366 -3.44667,-0.44166 -5.39,-0.68033 -11.55334,-1.42 -26.14,-2.789 -51.87667,-2.789 -25.73667,0 -40.32,1.369 -51.87667,2.789 -1.94333,0.23867 -3.72,0.46667 -5.39,0.68033 -7.77333,0.99634 -13.15733,1.686 -21.60733,1.73267 -0.34533,-0.092 -1.01867,-0.28867 -2.07133,-0.67867 -2.49867,-0.92533 -5.85667,-2.45233 -10.18034,-4.68 -6.95933,-3.586 -14.76733,-8.108 -23.569,-13.206 -2.317,-1.34166 -4.702658,-2.72366 -7.159998,-4.13866 -11.31466,-6.516 -23.894,-13.58267 -35.93133,-19.02167 -11.355,-5.13067 -25.441,-10.35567 -39.05567,-10.35567 z m 2.23567,445.46 c 11.13433,8.39667 23.96267,15.80333 38.13733,22.32333 C 112.21133,612.814 174.91,621.55733 217.65,621.55733 c 42.74,0 105.43667,-8.74333 156.46667,-32.21667 14.17666,-6.52 27.00333,-13.92666 38.13666,-22.32333 -11.74666,-2.04667 -20.67666,-12.29333 -20.67666,-24.62667 0,-13.80666 11.19333,-25 25,-25 10.90666,0 22.05333,2.72667 32.4,6.51334 5.28666,-11.06334 8.53333,-23.18 9.42333,-36.44334 -9.92333,-2.42333 -16.77667,-3.40333 -20.30667,-3.40333 -13.80666,0 -25,-11.19333 -25,-25 0,-13.80666 11.19334,-25 25,-25 6.49,0 13.83334,0.97334 21.23334,2.41334 0.003,-9.20334 -0.29667,-18.24 -1.30667,-27.5 -2.35,-21.51334 -8.44,-40.61 -22.81,-57.59 -5.14,-6.07334 -11.53333,-12.11334 -19.55667,-18.00667 -11.13,-8.17 -13.52666,-23.817 -5.35333,-34.94633 8.17,-11.129 23.81667,-13.52667 34.94667,-5.355 3.97,2.91533 7.72333,5.912 11.26333,8.98666 1.46667,-7.60666 2.12,-15.563 2.14333,-20.13966 v -62.442 c 0,-20.84334 -6.88,-31.75834 -13.93,-37.83034 -7.74,-6.668 -18.75666,-10.08633 -30.23,-10.08633 -2.34666,0 -8.21333,1.28567 -18.47,5.92 -9.57666,4.32633 -20.27,10.28033 -31.56666,16.78467 -2.12,1.22166 -4.28,2.473 -6.45667,3.73433 -8.92667,5.17167 -18.15333,10.51833 -26.32333,14.727 -5.15334,2.65467 -10.52334,5.19667 -15.71334,7.11933 -4.79,1.775 -11.41666,3.79434 -18.51333,3.79434 -12.39333,0 -21.08,-1.12434 -29.42,-2.20334 -1.53667,-0.199 -3.06333,-0.397 -4.6,-0.58566 -9.62333,-1.18234 -22.17,-2.41567 -45.78,-2.41567 -23.60667,0 -36.15667,1.23333 -45.78,2.41567 -1.53333,0.18866 -3.06,0.38633 -4.6,0.58533 -8.33667,1.07933 -17.02467,2.20367 -29.42,2.20367 -7.09467,0 -13.72167,-2.01967 -18.51367,-3.79467 -5.19066,-1.92267 -10.561,-4.465 -15.71366,-7.12 -8.168338,-4.20867 -17.395338,-9.55567 -26.319998,-14.727 -2.17767,-1.262 -4.33767,-2.51367 -6.45967,-3.73567 -11.29567,-6.505 -21.99167,-12.459 -31.567,-16.78566 -10.25767,-4.635 -16.122,-5.92034 -18.46767,-5.92034 -11.47433,0 -22.49266,3.418 -30.23266,10.08634 -7.048,6.072 -13.92767,16.98666 -13.92767,37.83033 v 62.446 c 0.022,4.577 0.67367,12.53267 2.14034,20.13933 3.54266,-3.075 7.29466,-6.07133 11.26499,-8.98666 11.12934,-8.17167 26.77567,-5.774 34.94734,5.35533 8.17166,11.129 5.77433,26.776 -5.355,34.946 -8.02367,5.89333 -14.41634,11.93333 -19.55534,18.00667 -14.36933,16.98 -20.46066,36.07666 -22.81033,57.59 -1.01166,9.26 -1.31133,18.29666 -1.30833,27.50333 7.40567,-1.44 14.752,-2.41667 21.248,-2.41667 13.80733,0 25,11.19334 25,25 0,13.80667 -11.19267,25 -25,25 -3.53267,0 -10.39,0.98 -20.32033,3.40333 0.892,13.26334 4.13666,25.38 9.42299,36.44 10.34734,-3.78333 21.49234,-6.51 32.399,-6.51 13.80734,0 25,11.19334 25,25 0,12.33334 -8.93033,22.58 -20.67733,24.62667 z"
         fill="#1c274c"
         id="path4"
         sodipodi:nodetypes="scscsccccccccccccccccsccccccccccccccccccscsccsscccccscccccccssccsccssccsssccccccccscscccscsccsccsscccsscsccccccccsssccssc"
         style="fill:#000000;stroke-width:0" /></g><g
       id="g3"
       transform="matrix(0.09668502,0,0,0.09668502,97.574093,358.2097)">
	<path
   class="st0"
   d="M 439.464,51.073 C 433.438,37.807 425.523,25.444 414.561,15.883 403.691,6.313 389.194,-0.084 372.94,0.001 c -8.295,-0.008 -16.126,1.739 -23.054,4.751 -12.177,5.3 -21.367,14.101 -28.414,23.535 -10.548,14.212 -16.793,30.254 -20.759,42.912 -1.055,3.409 -1.933,6.548 -2.667,9.375 H 268.991 243.007 213.944 C 211.817,72.262 208.332,60.996 202.881,49.266 197.59,38.034 190.527,26.312 180.223,16.734 175.075,11.966 169.059,7.756 162.113,4.751 155.184,1.739 147.345,-0.009 139.058,0 122.898,-0.085 108.443,6.135 97.539,15.544 81.093,29.739 71.313,49.95 64.908,70.853 c -6.321,20.987 -9.013,42.945 -9.03,61.696 0,28.591 0,140.346 0,181.932 0.008,15.916 2.482,35.696 8.616,56.894 9.215,31.713 26.785,66.751 57.671,94.21 30.81,27.494 75.021,46.515 133.831,46.414 39.215,0.016 71.933,-8.312 98.523,-22.144 39.966,-20.742 65.544,-53.434 80.802,-86.068 15.3,-32.768 20.759,-65.485 20.801,-89.307 0,-41.586 0,-153.341 0,-181.932 -0.076,-24.193 -4.725,-54.86 -16.658,-81.475 z m -14.531,263.408 c 0.008,12.666 -2.068,29.924 -7.384,48.202 -7.966,27.493 -23.106,57.148 -48.414,79.569 -25.375,22.397 -60.844,38.456 -113.139,38.557 -34.86,-0.016 -62.236,-7.274 -84.135,-18.625 -32.768,-17.029 -53.789,-43.67 -66.945,-71.636 -8.506,-18.059 -13.468,-36.625 -15.907,-52.675 12.565,0 34.473,0 64.574,0 49.443,0 82.405,-47.586 82.405,-86.042 0,-29.578 0,-106.228 0,-140.076 h 7.021 25.984 54.869 l 2.109,-13.097 c 0.025,-0.414 3.392,-19.536 11.797,-37.012 4.144,-8.735 9.528,-16.92 15.469,-22.27 2.979,-2.7 6.033,-4.725 9.198,-6.076 3.198,-1.35 6.523,-2.102 10.506,-2.11 8.439,0.084 14.734,2.768 21.173,8.245 9.553,8.118 17.908,23.586 23.114,41.198 5.308,17.518 7.73,36.928 7.706,51.915 -0.001,28.592 -0.001,140.347 -0.001,181.933 z"
   id="path1-3" />
	<path
   class="st0"
   d="m 253.397,350.86 c -22.963,0 -41.579,13.975 -41.579,31.19 0,17.224 18.616,31.19 41.579,31.19 22.97,0 41.586,-13.966 41.586,-31.19 10e-4,-17.215 -18.615,-31.19 -41.586,-31.19 z"
   id="path2-8" />
	<circle
   class="st0"
   cx="333.97101"
   cy="249.502"
   r="25.992001"
   id="circle2" />
	<path
   class="st0"
   d="m 372.08,71.039 c -17.316,0 -20.793,36.388 -20.793,36.388 h 38.126 c 0,-0.001 -0.017,-36.388 -17.333,-36.388 z"
   id="path3-0" />
</g></g><style
     type="text/css"
     id="style1">
	.st0{fill:#000000;}
</style></svg>
