<svg xmlns="http://www.w3.org/2000/svg" width="96" height="96" viewBox="0 0 96 96"><defs>
  <pattern id="dither-12" width="2" height="2" patternUnits="userSpaceOnUse">
    <rect width="2" height="2" fill="white"/>
    <rect width="0.5" height="0.5" fill="black"/>
    <rect x="1" y="1" width="0.5" height="0.5" fill="black"/>
  </pattern>
  <pattern id="dither-25" width="1" height="1" patternUnits="userSpaceOnUse">
    <rect width="1" height="1" fill="white"/>
    <rect width="0.5" height="0.5" fill="black"/>
  </pattern>
  <pattern id="dither-37" width="2" height="2" patternUnits="userSpaceOnUse">
    <rect width="2" height="2" fill="white"/>
    <rect width="0.5" height="0.5" fill="black"/>
    <rect x="1" y="0" width="0.5" height="0.5" fill="black"/>
    <rect x="0.5" y="0.5" width="0.5" height="0.5" fill="black"/>
    <rect x="1.5" y="1" width="0.5" height="0.5" fill="black"/>
    <rect x="0" y="1.5" width="0.5" height="0.5" fill="black"/>
    <rect x="1" y="1.5" width="0.5" height="0.5" fill="black"/>
  </pattern>
  <pattern id="dither-50" width="1" height="1" patternUnits="userSpaceOnUse">
    <rect width="1" height="1" fill="white"/>
    <rect width="0.5" height="0.5" fill="black"/>
    <rect x="0.5" y="0.5" width="0.5" height="0.5" fill="black"/>
  </pattern>
  <pattern id="dither-62" width="2" height="2" patternUnits="userSpaceOnUse">
    <rect width="2" height="2" fill="black"/>
    <rect width="0.5" height="0.5" fill="white"/>
    <rect x="1" y="0" width="0.5" height="0.5" fill="white"/>
    <rect x="0.5" y="0.5" width="0.5" height="0.5" fill="white"/>
    <rect x="1.5" y="1" width="0.5" height="0.5" fill="white"/>
    <rect x="0" y="1.5" width="0.5" height="0.5" fill="white"/>
    <rect x="1" y="1.5" width="0.5" height="0.5" fill="white"/>
  </pattern>
  <pattern id="dither-75" width="1" height="1" patternUnits="userSpaceOnUse">
    <rect width="1" height="1" fill="black"/>
    <rect width="0.5" height="0.5" fill="white"/>
  </pattern>
  <pattern id="dither-87" width="2" height="2" patternUnits="userSpaceOnUse">
    <rect width="2" height="2" fill="black"/>
    <rect width="0.5" height="0.5" fill="white"/>
    <rect x="1" y="1" width="0.5" height="0.5" fill="white"/>
  </pattern>
</defs><path d="M14.0844,13.4531a41.5134,41.5134,0,1,1,0,58.7088,41.5133,41.5133,0,0,1,0-58.7088" style="fill-rule:evenodd;fill:white"/><rect y="-0.0032" width="96" height="96" style="fill:none"/><g><path d="M24.1951,23.1917a27.7408,27.7408,0,1,1,0,39.2318,27.7412,27.7412,0,0,1,0-39.2318" style="fill:white;fill-rule:evenodd"/><g><path d="M46.1033,15.176a40.46,40.46,0,0,0,1.6716,55.057,27.7153,27.7153,0,0,0-1.6716-55.057Z" style="fill:url(#dither-12);fill-rule:evenodd"/></g></g><g><path d="M79.6672,45.397H67.9924a2.6,2.6,0,0,1,0-5.2H79.6672a2.6,2.6,0,0,1,0,5.2Z" style="fill:url(#dither-12)"/></g><g><path d="M52.5861,24.5967h-30.81a2.6,2.6,0,0,1,0-5.2H52.5861a2.6,2.6,0,0,1,0,5.2Z" style="fill:url(#dither-12)"/></g><g><path d="M70.9113,66.1968H41.0734a2.6,2.6,0,0,1,0-5.2H70.9113a2.6,2.6,0,0,1,0,5.2Z" style="fill:url(#dither-12)"/></g><path d="M70.5861,29.7969H36.4416a2.6,2.6,0,0,0,0,5.2h3.9907a2.5992,2.5992,0,0,1-.0079,5.1984v.0013H10.1232a2.6,2.6,0,0,0,0,5.2h9.6286a2.5993,2.5993,0,0,1-.0067,5.1985v.0012h-3.159a2.6,2.6,0,0,0,0,5.2h25.46a2.6,2.6,0,0,0,0-5.2h-1.46v-.0012A2.5993,2.5993,0,0,1,40.58,45.397H57.6135a2.6,2.6,0,0,0,0-5.2H51.1271v-.0013a2.5992,2.5992,0,0,1-.0079-5.1984H70.5861a2.6,2.6,0,0,0,0-5.2Z" style="fill:url(#dither-12)"/><path d="M15.3605,34.9971H26.0627a2.6,2.6,0,0,0,0-5.2H15.3605a2.6,2.6,0,0,0,0,5.2Z" style="fill:url(#dither-12)"/><path d="M60.2082,50.5967H52.424a2.6,2.6,0,0,0,0,5.2h7.7842a2.6,2.6,0,0,0,0-5.2Z" style="fill:url(#dither-12)"/></svg>