<svg xmlns="http://www.w3.org/2000/svg" width="96" height="96" viewBox="0 0 96 96"><defs>
  <pattern id="dither-12" width="2" height="2" patternUnits="userSpaceOnUse">
    <rect width="2" height="2" fill="white"/>
    <rect width="0.5" height="0.5" fill="black"/>
    <rect x="1" y="1" width="0.5" height="0.5" fill="black"/>
  </pattern>
  <pattern id="dither-25" width="1" height="1" patternUnits="userSpaceOnUse">
    <rect width="1" height="1" fill="white"/>
    <rect width="0.5" height="0.5" fill="black"/>
  </pattern>
  <pattern id="dither-37" width="2" height="2" patternUnits="userSpaceOnUse">
    <rect width="2" height="2" fill="white"/>
    <rect width="0.5" height="0.5" fill="black"/>
    <rect x="1" y="0" width="0.5" height="0.5" fill="black"/>
    <rect x="0.5" y="0.5" width="0.5" height="0.5" fill="black"/>
    <rect x="1.5" y="1" width="0.5" height="0.5" fill="black"/>
    <rect x="0" y="1.5" width="0.5" height="0.5" fill="black"/>
    <rect x="1" y="1.5" width="0.5" height="0.5" fill="black"/>
  </pattern>
  <pattern id="dither-50" width="1" height="1" patternUnits="userSpaceOnUse">
    <rect width="1" height="1" fill="white"/>
    <rect width="0.5" height="0.5" fill="black"/>
    <rect x="0.5" y="0.5" width="0.5" height="0.5" fill="black"/>
  </pattern>
  <pattern id="dither-62" width="2" height="2" patternUnits="userSpaceOnUse">
    <rect width="2" height="2" fill="black"/>
    <rect width="0.5" height="0.5" fill="white"/>
    <rect x="1" y="0" width="0.5" height="0.5" fill="white"/>
    <rect x="0.5" y="0.5" width="0.5" height="0.5" fill="white"/>
    <rect x="1.5" y="1" width="0.5" height="0.5" fill="white"/>
    <rect x="0" y="1.5" width="0.5" height="0.5" fill="white"/>
    <rect x="1" y="1.5" width="0.5" height="0.5" fill="white"/>
  </pattern>
  <pattern id="dither-75" width="1" height="1" patternUnits="userSpaceOnUse">
    <rect width="1" height="1" fill="black"/>
    <rect width="0.5" height="0.5" fill="white"/>
  </pattern>
  <pattern id="dither-87" width="2" height="2" patternUnits="userSpaceOnUse">
    <rect width="2" height="2" fill="black"/>
    <rect width="0.5" height="0.5" fill="white"/>
    <rect x="1" y="1" width="0.5" height="0.5" fill="white"/>
  </pattern>
</defs><path d="M47.3654,7.3768a20.7566,20.7566,0,1,1,0,29.3546,20.7569,20.7569,0,0,1,0-29.3546" style="fill:white;fill-rule:evenodd"/><g><path d="M63.7579,1.3792a30.2736,30.2736,0,0,0,1.2507,41.1956A20.7376,20.7376,0,0,0,63.7579,1.3792Z" style="fill:url(#dither-12);fill-rule:evenodd"/></g><rect y="-0.0153" width="96" height="96" style="fill:none"/><g><path d="M28.4945,88.9805a2.6,2.6,0,0,1-2.6-2.6V59.5137a2.6,2.6,0,1,1,5.1992,0V86.38A2.6,2.6,0,0,1,28.4945,88.9805Z" style="fill:url(#dither-25)"/></g><path d="M38.8725,70.3843a2.6,2.6,0,0,1-2.6-2.6v-.125a2.6,2.6,0,1,1,5.1993,0v.125A2.6,2.6,0,0,1,38.8725,70.3843Z" style="fill:url(#dither-37)"/><path d="M38.8725,81.0493a2.6,2.6,0,0,1-2.6-2.6v-.2866a2.6,2.6,0,1,1,5.1993,0v.2866A2.6,2.6,0,0,1,38.8725,81.0493Z" style="fill:url(#dither-37)"/><g><path d="M18.1156,76.3843a2.6,2.6,0,0,1-2.6-2.6v-14.27a2.6,2.6,0,1,1,5.1992,0v14.27A2.6,2.6,0,0,1,18.1156,76.3843Z" style="fill:url(#dither-25)"/></g><g><path d="M18.12,86.7578a2.5753,2.5753,0,0,1-1.84-.76,3.0477,3.0477,0,0,1-.33-.39,3.2593,3.2593,0,0,1-.24-.45,2.8089,2.8089,0,0,1-.14-.49,2.2272,2.2272,0,0,1-.06-.51,2.1366,2.1366,0,0,1,.06-.5,2.7941,2.7941,0,0,1,.14-.49,3.2593,3.2593,0,0,1,.24-.45,3.0464,3.0464,0,0,1,.33-.39,2.6785,2.6785,0,0,1,3.67,0,3.13,3.13,0,0,1,.33.39,3.2593,3.2593,0,0,1,.24.45,2.7941,2.7941,0,0,1,.14.49,2.1351,2.1351,0,0,1,.0595.5,2.2256,2.2256,0,0,1-.0595.51,2.8089,2.8089,0,0,1-.14.49,3.2593,3.2593,0,0,1-.24.45,3.131,3.131,0,0,1-.33.39,3.0741,3.0741,0,0,1-.39.33,3.2462,3.2462,0,0,1-.45.24,2.7819,2.7819,0,0,1-.49.14A2.0969,2.0969,0,0,1,18.12,86.7578Z" style="fill:url(#dither-25)"/></g><path d="M74.9144,48.3669a12.7121,12.7121,0,0,0-9.4329-12.2744A9.012,9.012,0,0,0,54.2792,23.9282a20.2037,20.2037,0,0,0-39.64,4.75,16.3427,16.3427,0,0,0,3.0065,32.4075c.1547,0,.3042-.0189.458-.0231v.0231H62.3385V61.078A12.714,12.714,0,0,0,74.9144,48.3669Z" style="fill:url(#dither-37)"/><path d="M74.9144,48.3669a12.7121,12.7121,0,0,0-9.4329-12.2744A9.012,9.012,0,0,0,54.2792,23.9282a20.2037,20.2037,0,0,0-39.64,4.75,16.3427,16.3427,0,0,0,3.0065,32.4075c.1547,0,.3042-.0189.458-.0231v.0231H62.3385V61.078A12.714,12.714,0,0,0,74.9144,48.3669Z" style="fill:url(#dither-37)"/><path d="M81.41,46.0332a9.8366,9.8366,0,0,0-3.27.5659,13.37,13.37,0,0,0-26.4362,2.8342c0,.1866.02.368.0278.5528a7.9392,7.9392,0,1,0,.1306,15.709v.0941H81.41a9.878,9.878,0,1,0,0-19.756Z" style="fill:url(#dither-25)"/></svg>