<svg xmlns="http://www.w3.org/2000/svg" width="96" height="96" viewBox="0 0 96 96"><defs>
  <pattern id="dither-12" width="2" height="2" patternUnits="userSpaceOnUse">
    <rect width="2" height="2" fill="white"/>
    <rect width="0.5" height="0.5" fill="black"/>
    <rect x="1" y="1" width="0.5" height="0.5" fill="black"/>
  </pattern>
  <pattern id="dither-25" width="1" height="1" patternUnits="userSpaceOnUse">
    <rect width="1" height="1" fill="white"/>
    <rect width="0.5" height="0.5" fill="black"/>
  </pattern>
  <pattern id="dither-37" width="2" height="2" patternUnits="userSpaceOnUse">
    <rect width="2" height="2" fill="white"/>
    <rect width="0.5" height="0.5" fill="black"/>
    <rect x="1" y="0" width="0.5" height="0.5" fill="black"/>
    <rect x="0.5" y="0.5" width="0.5" height="0.5" fill="black"/>
    <rect x="1.5" y="1" width="0.5" height="0.5" fill="black"/>
    <rect x="0" y="1.5" width="0.5" height="0.5" fill="black"/>
    <rect x="1" y="1.5" width="0.5" height="0.5" fill="black"/>
  </pattern>
  <pattern id="dither-50" width="1" height="1" patternUnits="userSpaceOnUse">
    <rect width="1" height="1" fill="white"/>
    <rect width="0.5" height="0.5" fill="black"/>
    <rect x="0.5" y="0.5" width="0.5" height="0.5" fill="black"/>
  </pattern>
  <pattern id="dither-62" width="2" height="2" patternUnits="userSpaceOnUse">
    <rect width="2" height="2" fill="black"/>
    <rect width="0.5" height="0.5" fill="white"/>
    <rect x="1" y="0" width="0.5" height="0.5" fill="white"/>
    <rect x="0.5" y="0.5" width="0.5" height="0.5" fill="white"/>
    <rect x="1.5" y="1" width="0.5" height="0.5" fill="white"/>
    <rect x="0" y="1.5" width="0.5" height="0.5" fill="white"/>
    <rect x="1" y="1.5" width="0.5" height="0.5" fill="white"/>
  </pattern>
  <pattern id="dither-75" width="1" height="1" patternUnits="userSpaceOnUse">
    <rect width="1" height="1" fill="black"/>
    <rect width="0.5" height="0.5" fill="white"/>
  </pattern>
  <pattern id="dither-87" width="2" height="2" patternUnits="userSpaceOnUse">
    <rect width="2" height="2" fill="black"/>
    <rect width="0.5" height="0.5" fill="white"/>
    <rect x="1" y="1" width="0.5" height="0.5" fill="white"/>
  </pattern>
</defs><g><path d="M88.6138,62.304a14.9053,14.9053,0,0,0-11.06-14.3919A10.5668,10.5668,0,0,0,64.4188,33.6494,23.689,23.689,0,0,0,17.94,39.2182a19.162,19.162,0,0,0,3.5252,37.998c.1814,0,.3567-.0221.537-.027v.027H73.8685v-.0084A14.9072,14.9072,0,0,0,88.6138,62.304Z" style="fill:white"/></g><path d="M79.9887,50.0972a1.2986,1.2986,0,0,1-.5479-.1216,13.6154,13.6154,0,0,0-2.2226-.8076A1.3008,1.3008,0,0,1,76.3588,47.4a9.3889,9.3889,0,0,0,.6357-2.1821,1.3,1.3,0,0,1,2.5664.4189,11.9618,11.9618,0,0,1-.3281,1.4414q.6651.2418,1.3057.54a1.3,1.3,0,0,1-.55,2.479Z" style="fill:url(#dither-37)"/><path d="M77.0248,39.7491a1.3011,1.3011,0,0,1-1.1309-.6568,9.443,9.443,0,0,0-2.8369-3.0874,1.3,1.3,0,1,1,1.4746-2.1416,12.062,12.062,0,0,1,3.6211,3.9419,1.3,1.3,0,0,1-1.1279,1.9439Z" style="fill:url(#dither-37)"/><path d="M64.4193,34.9493a1.3005,1.3005,0,0,1-1.2509-.9468,22.4249,22.4249,0,0,0-.795-2.32,1.3,1.3,0,1,1,2.41-.9766c.18.4433.3467.894.501,1.3486a11.4453,11.4453,0,0,1,1.5508-.25,1.3,1.3,0,0,1,.2324,2.59,9.8555,9.8555,0,0,0-2.2383.4887A1.3,1.3,0,0,1,64.4193,34.9493Z" style="fill:url(#dither-37)"/><path d="M20.6781,30.28a1.3,1.3,0,0,1-1.1474-1.9092,25.1,25.1,0,0,1,3.2011-4.67,1.3,1.3,0,1,1,1.9649,1.7022,22.5545,22.5545,0,0,0-2.8692,4.1855A1.2992,1.2992,0,0,1,20.6781,30.28Zm38.669-4.6128a1.2964,1.2964,0,0,1-.9737-.438A22.5789,22.5789,0,0,0,54.6039,21.83a1.3,1.3,0,1,1,1.5117-2.1152,25.2176,25.2176,0,0,1,4.2051,3.7905,1.3,1.3,0,0,1-.9736,2.1616ZM29.9232,20.7559a1.3,1.3,0,0,1-.6445-2.43,24.79,24.79,0,0,1,5.21-2.2227,1.3,1.3,0,1,1,.74,2.4922,22.2461,22.2461,0,0,0-4.6631,1.9893A1.2936,1.2936,0,0,1,29.9232,20.7559Zm18.208-2.1748a1.3,1.3,0,0,1-.3583-.05,22.3444,22.3444,0,0,0-5.004-.8291A1.3,1.3,0,0,1,42.9,15.105a24.9621,24.9621,0,0,1,5.5879.9258,1.3,1.3,0,0,1-.3565,2.55Z" style="fill:url(#dither-37)"/><path d="M15.4271,41.1656a1.3,1.3,0,0,1-.4091-2.5342c.5507-.1826,1.1132-.3428,1.6806-.478.044-.5728.1075-1.1441.1905-1.7081a1.3,1.3,0,1,1,2.5722.376,22.6981,22.6981,0,0,0-.2217,2.4434,1.3,1.3,0,0,1-1.0615,1.2319,17.7484,17.7484,0,0,0-2.3418.6026A1.3,1.3,0,0,1,15.4271,41.1656Z" style="fill:url(#dither-37)"/><path d="M11.2758,75.5879a1.2925,1.2925,0,0,1-.6914-.2A20.5646,20.5646,0,0,1,5.932,71.3775a1.3,1.3,0,0,1,1.9727-1.6944,17.9451,17.9451,0,0,0,4.0644,3.5039,1.3,1.3,0,0,1-.6933,2.4009ZM2.9223,64.2246a1.3015,1.3015,0,0,1-1.2569-.9707,20.5425,20.5425,0,0,1-.6679-5.2055c0-.3037.0058-.606.0195-.9068a1.3225,1.3225,0,0,1,1.3574-1.24,1.3007,1.3007,0,0,1,1.24,1.3574q-.0175.3925-.0175.79a17.9117,17.9117,0,0,0,.584,4.5464,1.3013,1.3013,0,0,1-1.2588,1.63ZM4.6078,50.2212a1.3,1.3,0,0,1-1.1406-1.9219,20.523,20.523,0,0,1,3.7109-4.8964,1.3,1.3,0,1,1,1.8145,1.8623A17.9415,17.9415,0,0,0,5.75,49.5425,1.2987,1.2987,0,0,1,4.6078,50.2212Z" style="fill:url(#dither-37)"/><path d="M24.5971,78.5161H22.0023a1.296,1.296,0,0,1-.1914-.0136,14.7511,14.7511,0,0,1-2.538-.1026,1.3,1.3,0,1,1,.2753-2.5849,12.51,12.51,0,0,0,2.126.09c.0977-.0068.1944-.0132.293-.0156a1.3739,1.3739,0,0,1,.3008.0268h2.3291a1.3,1.3,0,0,1,0,2.6Z" style="fill:url(#dither-37)"/><path d="M63.4945,78.5161H58.308a1.3,1.3,0,0,1,0-2.6h5.1865a1.3,1.3,0,1,1,0,2.6Zm-12.9658,0H45.3422a1.3,1.3,0,0,1,0-2.6h5.1865a1.3,1.3,0,0,1,0,2.6Zm-12.9658,0H32.3764a1.3,1.3,0,0,1,0-2.6h5.1865a1.3,1.3,0,0,1,0,2.6Z" style="fill:url(#dither-37)"/><path d="M73.8686,78.5161H71.2738a1.3,1.3,0,1,1,0-2.6h2.4434a1.3083,1.3083,0,0,1,.1377-.0088,13.7378,13.7378,0,0,0,2.3574-.23,1.3,1.3,0,1,1,.4746,2.5566,16.3815,16.3815,0,0,1-2.6474.2705A1.2379,1.2379,0,0,1,73.8686,78.5161Z" style="fill:url(#dither-37)"/><path d="M84.0512,74.3345a1.3,1.3,0,0,1-.9024-2.2363,13.5418,13.5418,0,0,0,3.0078-4.2945,1.3,1.3,0,1,1,2.377,1.0528,16.1563,16.1563,0,0,1-3.58,5.1147A1.3,1.3,0,0,1,84.0512,74.3345ZM88.4105,61.15a1.3,1.3,0,0,1-1.28-1.0874A13.4507,13.4507,0,0,0,85.2846,55.16a1.3,1.3,0,0,1,2.2109-1.3691,16.0378,16.0378,0,0,1,2.1992,5.8462,1.3,1.3,0,0,1-1.0693,1.4951A1.2861,1.2861,0,0,1,88.4105,61.15Z" style="fill:url(#dither-37)"/><rect width="96" height="96" style="fill:none"/><path d="M45.456,40.0243A11.9593,11.9593,0,1,0,57.4153,51.9836,11.9594,11.9594,0,0,0,45.456,40.0243ZM36.0594,51.9836a9.3791,9.3791,0,0,1,15.0633-7.4779L37.9774,57.6494A9.3362,9.3362,0,0,1,36.0594,51.9836ZM45.456,61.38a9.3368,9.3368,0,0,1-5.6668-1.9187L52.9345,46.3177A9.3791,9.3791,0,0,1,45.456,61.38Z" style="fill:url(#dither-37)"/></svg>