<svg xmlns="http://www.w3.org/2000/svg" width="96" height="96" viewBox="0 0 96 96"><defs>
  <pattern id="dither-12" width="2" height="2" patternUnits="userSpaceOnUse">
    <rect width="2" height="2" fill="white"/>
    <rect width="0.5" height="0.5" fill="black"/>
    <rect x="1" y="1" width="0.5" height="0.5" fill="black"/>
  </pattern>
  <pattern id="dither-25" width="1" height="1" patternUnits="userSpaceOnUse">
    <rect width="1" height="1" fill="white"/>
    <rect width="0.5" height="0.5" fill="black"/>
  </pattern>
  <pattern id="dither-37" width="2" height="2" patternUnits="userSpaceOnUse">
    <rect width="2" height="2" fill="white"/>
    <rect width="0.5" height="0.5" fill="black"/>
    <rect x="1" y="0" width="0.5" height="0.5" fill="black"/>
    <rect x="0.5" y="0.5" width="0.5" height="0.5" fill="black"/>
    <rect x="1.5" y="1" width="0.5" height="0.5" fill="black"/>
    <rect x="0" y="1.5" width="0.5" height="0.5" fill="black"/>
    <rect x="1" y="1.5" width="0.5" height="0.5" fill="black"/>
  </pattern>
  <pattern id="dither-50" width="1" height="1" patternUnits="userSpaceOnUse">
    <rect width="1" height="1" fill="white"/>
    <rect width="0.5" height="0.5" fill="black"/>
    <rect x="0.5" y="0.5" width="0.5" height="0.5" fill="black"/>
  </pattern>
  <pattern id="dither-62" width="2" height="2" patternUnits="userSpaceOnUse">
    <rect width="2" height="2" fill="black"/>
    <rect width="0.5" height="0.5" fill="white"/>
    <rect x="1" y="0" width="0.5" height="0.5" fill="white"/>
    <rect x="0.5" y="0.5" width="0.5" height="0.5" fill="white"/>
    <rect x="1.5" y="1" width="0.5" height="0.5" fill="white"/>
    <rect x="0" y="1.5" width="0.5" height="0.5" fill="white"/>
    <rect x="1" y="1.5" width="0.5" height="0.5" fill="white"/>
  </pattern>
  <pattern id="dither-75" width="1" height="1" patternUnits="userSpaceOnUse">
    <rect width="1" height="1" fill="black"/>
    <rect width="0.5" height="0.5" fill="white"/>
  </pattern>
  <pattern id="dither-87" width="2" height="2" patternUnits="userSpaceOnUse">
    <rect width="2" height="2" fill="black"/>
    <rect width="0.5" height="0.5" fill="white"/>
    <rect x="1" y="1" width="0.5" height="0.5" fill="white"/>
  </pattern>
</defs><path d="M77.5536,47.9121A10.5668,10.5668,0,0,0,64.4188,33.6494,23.6889,23.6889,0,0,0,17.94,39.2183a19.1619,19.1619,0,0,0,3.5252,37.9979c.1814,0,.3567-.0221.5368-.0271v.0271H73.8686v-.0084a14.9,14.9,0,0,0,3.685-29.2957Z" style="fill:white"/><path d="M81.1684,49.3452a1.3,1.3,0,0,1-1.7276.63,13.6154,13.6154,0,0,0-2.2226-.8076A1.3008,1.3008,0,0,1,76.3588,47.4a9.3889,9.3889,0,0,0,.6357-2.1821,1.3,1.3,0,0,1,2.5664.4189,11.9661,11.9661,0,0,1-.3281,1.4414q.6651.2416,1.3057.54A1.3005,1.3005,0,0,1,81.1684,49.3452ZM75.8939,39.0923a1.3,1.3,0,1,0,2.2588-1.2871,12.06,12.06,0,0,0-3.6211-3.9419,1.3,1.3,0,1,0-1.4746,2.1416A9.442,9.442,0,0,1,75.8939,39.0923Zm-9.0585-7.2881a11.4453,11.4453,0,0,0-1.5508.25c-.1543-.4546-.3213-.9053-.501-1.3486a1.3,1.3,0,0,0-2.41.9765,22.433,22.433,0,0,1,.795,2.32,1.3,1.3,0,0,0,1.6611.88,9.856,9.856,0,0,1,2.2383-.4888,1.3,1.3,0,1,0-.2324-2.59ZM36.1049,16.98a1.3018,1.3018,0,0,0-1.6162-.876,24.79,24.79,0,0,0-5.21,2.2227,1.3,1.3,0,1,0,1.2871,2.2588,22.2408,22.2408,0,0,1,4.6631-1.9893A1.3,1.3,0,0,0,36.1049,16.98ZM58.3734,25.229a1.3,1.3,0,0,0,1.9473-1.7236,25.2225,25.2225,0,0,0-4.2051-3.7906A1.3,1.3,0,1,0,54.6039,21.83,22.5745,22.5745,0,0,1,58.3734,25.229ZM42.7689,17.7017a22.3444,22.3444,0,0,1,5.004.8291,1.3,1.3,0,0,0,.7148-2.5A24.9621,24.9621,0,0,0,42.9,15.105a1.3,1.3,0,0,0-.1309,2.5967ZM20.07,30.1279a1.2991,1.2991,0,0,0,1.7578-.54,22.5519,22.5519,0,0,1,2.8692-4.1856,1.3,1.3,0,1,0-1.9649-1.7021,25.0938,25.0938,0,0,0-3.2011,4.67A1.2994,1.2994,0,0,0,20.07,30.1279Zm-.83,9.1367a22.4893,22.4893,0,0,1,.2217-2.4433,1.3,1.3,0,1,0-2.5722-.376c-.083.5645-.1465,1.1358-.1905,1.708-.5674.1353-1.13.2954-1.6806.478a1.3,1.3,0,1,0,.8183,2.4678,17.7636,17.7636,0,0,1,2.3418-.6025A1.3,1.3,0,0,0,19.24,39.2646ZM3.5971,58.0483q0-.3969.0175-.7895a1.3007,1.3007,0,0,0-1.24-1.3574,1.3143,1.3143,0,0,0-1.3574,1.24c-.0137.3008-.0195.603-.0195.9067a20.5432,20.5432,0,0,0,.6679,5.2056,1.3,1.3,0,0,0,2.5157-.6592A17.9106,17.9106,0,0,1,3.5971,58.0483Zm8.372,15.1387a17.9451,17.9451,0,0,1-4.0644-3.5039A1.3,1.3,0,0,0,5.932,71.3774a20.5626,20.5626,0,0,0,4.6524,4.0108,1.3,1.3,0,0,0,1.3847-2.2012ZM8.9926,45.2651a1.3,1.3,0,1,0-1.8145-1.8623,20.5235,20.5235,0,0,0-3.7109,4.8965A1.3,1.3,0,1,0,5.75,49.5425,17.942,17.942,0,0,1,8.9926,45.2651ZM24.5971,75.9165H22.268a1.1538,1.1538,0,0,0-.3047-.0269c-.0947.003-.1895.0088-.2832.0157a12.4445,12.4445,0,0,1-2.1319-.09,1.3,1.3,0,1,0-.2753,2.585,14.9354,14.9354,0,0,0,2.538.1025,1.3058,1.3058,0,0,0,.1914.0137h2.5948a1.3,1.3,0,0,0,0-2.6Zm12.9658,0H32.3764a1.3,1.3,0,0,0,0,2.6h5.1865a1.3,1.3,0,0,0,0-2.6Zm25.9316,0H58.308a1.3,1.3,0,0,0,0,2.6h5.1865a1.3,1.3,0,1,0,0-2.6Zm-12.9658,0H45.3422a1.3,1.3,0,0,0,0,2.6h5.1865a1.3,1.3,0,0,0,0-2.6Zm25.6836-.2388a13.77,13.77,0,0,1-2.3584.23,1.16,1.16,0,0,0-.1318.0083H71.2738a1.3,1.3,0,1,0,0,2.6h2.5948a1.259,1.259,0,0,0,.1669-.0107,16.408,16.408,0,0,0,2.6514-.271,1.3,1.3,0,1,0-.4746-2.5567Zm11.6592-8.5366a1.3,1.3,0,0,0-1.7149.6626,13.5413,13.5413,0,0,1-3.0078,4.2944,1.3005,1.3005,0,0,0,1.8047,1.8731,16.1567,16.1567,0,0,0,3.58-5.1148A1.3,1.3,0,0,0,87.8715,67.1411Zm-.376-13.3506A1.3,1.3,0,0,0,85.2846,55.16,13.4507,13.4507,0,0,1,87.13,60.0625a1.3,1.3,0,0,0,1.28,1.0874,1.2863,1.2863,0,0,0,.2149-.0181,1.3,1.3,0,0,0,1.0693-1.4951A16.0392,16.0392,0,0,0,87.4955,53.7905Z" style="fill:url(#dither-37)"/><rect y="-0.5" width="96" height="96" style="fill:none"/><path d="M45.456,40.0243A11.9593,11.9593,0,1,0,57.4153,51.9836,11.9594,11.9594,0,0,0,45.456,40.0243ZM36.0594,51.9836a9.3791,9.3791,0,0,1,15.0633-7.4779L37.9774,57.6494A9.3362,9.3362,0,0,1,36.0594,51.9836ZM45.456,61.38a9.3368,9.3368,0,0,1-5.6668-1.9187L52.9345,46.3177A9.3791,9.3791,0,0,1,45.456,61.38Z" style="fill:url(#dither-37)"/></svg>