<svg xmlns="http://www.w3.org/2000/svg" width="96" height="96" viewBox="0 0 96 96"><defs>
  <pattern id="dither-12" width="2" height="2" patternUnits="userSpaceOnUse">
    <rect width="2" height="2" fill="white"/>
    <rect width="0.5" height="0.5" fill="black"/>
    <rect x="1" y="1" width="0.5" height="0.5" fill="black"/>
  </pattern>
  <pattern id="dither-25" width="1" height="1" patternUnits="userSpaceOnUse">
    <rect width="1" height="1" fill="white"/>
    <rect width="0.5" height="0.5" fill="black"/>
  </pattern>
  <pattern id="dither-37" width="2" height="2" patternUnits="userSpaceOnUse">
    <rect width="2" height="2" fill="white"/>
    <rect width="0.5" height="0.5" fill="black"/>
    <rect x="1" y="0" width="0.5" height="0.5" fill="black"/>
    <rect x="0.5" y="0.5" width="0.5" height="0.5" fill="black"/>
    <rect x="1.5" y="1" width="0.5" height="0.5" fill="black"/>
    <rect x="0" y="1.5" width="0.5" height="0.5" fill="black"/>
    <rect x="1" y="1.5" width="0.5" height="0.5" fill="black"/>
  </pattern>
  <pattern id="dither-50" width="1" height="1" patternUnits="userSpaceOnUse">
    <rect width="1" height="1" fill="white"/>
    <rect width="0.5" height="0.5" fill="black"/>
    <rect x="0.5" y="0.5" width="0.5" height="0.5" fill="black"/>
  </pattern>
  <pattern id="dither-62" width="2" height="2" patternUnits="userSpaceOnUse">
    <rect width="2" height="2" fill="black"/>
    <rect width="0.5" height="0.5" fill="white"/>
    <rect x="1" y="0" width="0.5" height="0.5" fill="white"/>
    <rect x="0.5" y="0.5" width="0.5" height="0.5" fill="white"/>
    <rect x="1.5" y="1" width="0.5" height="0.5" fill="white"/>
    <rect x="0" y="1.5" width="0.5" height="0.5" fill="white"/>
    <rect x="1" y="1.5" width="0.5" height="0.5" fill="white"/>
  </pattern>
  <pattern id="dither-75" width="1" height="1" patternUnits="userSpaceOnUse">
    <rect width="1" height="1" fill="black"/>
    <rect width="0.5" height="0.5" fill="white"/>
  </pattern>
  <pattern id="dither-87" width="2" height="2" patternUnits="userSpaceOnUse">
    <rect width="2" height="2" fill="black"/>
    <rect width="0.5" height="0.5" fill="white"/>
    <rect x="1" y="1" width="0.5" height="0.5" fill="white"/>
  </pattern>
</defs><path d="M35.0355,9.4224a27.7408,27.7408,0,1,1,0,39.2318,27.7412,27.7412,0,0,1,0-39.2318" style="fill:white;fill-rule:evenodd"/><g><path d="M56.9437,1.4067a40.46,40.46,0,0,0,1.6716,55.057,27.7153,27.7153,0,0,0-1.6716-55.057Z" style="fill:url(#dither-12);fill-rule:evenodd"/></g><g><path d="M87.9914,52.0923H62.6945a2.6,2.6,0,0,1,0-5.2H87.9914a2.6,2.6,0,0,1,0,5.2Z" style="fill:url(#dither-12)"/></g><path d="M80.2072,57.292H64.4841a10.827,10.827,0,0,0-14.407-15.1529,8.5911,8.5911,0,0,0-14.4126-5.9063A14.4615,14.4615,0,0,0,9.6528,47.0614c-.2066-.0165-.4138-.0315-.6248-.0315a7.7308,7.7308,0,0,0,0,15.4616H23.9348a2.6,2.6,0,0,1,0,5.1992v.0012H19.6135a2.6,2.6,0,0,0,0,5.2H58.0451a2.6,2.6,0,0,0,0-5.2H54.3168v-.0012a2.5993,2.5993,0,0,1-.0065-5.1985H80.2072a2.6,2.6,0,0,0,0-5.2Z" style="fill:url(#dither-25)"/><g><path d="M9.2346,72.8921H4.8019a2.6,2.6,0,0,1,0-5.2H9.2346a2.6,2.6,0,0,1,0,5.2Z" style="fill:url(#dither-12)"/></g><g><path d="M72.3693,72.8921H67.0725a2.6,2.6,0,0,1,0-5.2h5.2968a2.6,2.6,0,0,1,0,5.2Z" style="fill:url(#dither-12)"/></g><g><path d="M91.883,72.8921H81.3967a2.6,2.6,0,0,1,0-5.2H91.883a2.6,2.6,0,0,1,0,5.2Z" style="fill:url(#dither-12)"/></g><g><path d="M74.2922,83.292H44.5314a2.6,2.6,0,0,1,0-5.2H74.2922a2.6,2.6,0,0,1,0,5.2Z" style="fill:url(#dither-12)"/></g><g><path d="M34.1535,83.292H24.5012a2.6,2.6,0,0,1,0-5.2h9.6523a2.6,2.6,0,0,1,0,5.2Z" style="fill:url(#dither-12)"/></g><g><path d="M84.7482,83.292H83.6975a2.6,2.6,0,0,1,0-5.2h1.0507a2.6,2.6,0,0,1,0,5.2Z" style="fill:url(#dither-12)"/></g><rect width="96" height="96" style="fill:none"/></svg>