<svg xmlns="http://www.w3.org/2000/svg" width="96" height="96" viewBox="0 0 96 96"><defs>
  <pattern id="dither-12" width="2" height="2" patternUnits="userSpaceOnUse">
    <rect width="2" height="2" fill="white"/>
    <rect width="0.5" height="0.5" fill="black"/>
    <rect x="1" y="1" width="0.5" height="0.5" fill="black"/>
  </pattern>
  <pattern id="dither-25" width="1" height="1" patternUnits="userSpaceOnUse">
    <rect width="1" height="1" fill="white"/>
    <rect width="0.5" height="0.5" fill="black"/>
  </pattern>
  <pattern id="dither-37" width="2" height="2" patternUnits="userSpaceOnUse">
    <rect width="2" height="2" fill="white"/>
    <rect width="0.5" height="0.5" fill="black"/>
    <rect x="1" y="0" width="0.5" height="0.5" fill="black"/>
    <rect x="0.5" y="0.5" width="0.5" height="0.5" fill="black"/>
    <rect x="1.5" y="1" width="0.5" height="0.5" fill="black"/>
    <rect x="0" y="1.5" width="0.5" height="0.5" fill="black"/>
    <rect x="1" y="1.5" width="0.5" height="0.5" fill="black"/>
  </pattern>
  <pattern id="dither-50" width="1" height="1" patternUnits="userSpaceOnUse">
    <rect width="1" height="1" fill="white"/>
    <rect width="0.5" height="0.5" fill="black"/>
    <rect x="0.5" y="0.5" width="0.5" height="0.5" fill="black"/>
  </pattern>
  <pattern id="dither-62" width="2" height="2" patternUnits="userSpaceOnUse">
    <rect width="2" height="2" fill="black"/>
    <rect width="0.5" height="0.5" fill="white"/>
    <rect x="1" y="0" width="0.5" height="0.5" fill="white"/>
    <rect x="0.5" y="0.5" width="0.5" height="0.5" fill="white"/>
    <rect x="1.5" y="1" width="0.5" height="0.5" fill="white"/>
    <rect x="0" y="1.5" width="0.5" height="0.5" fill="white"/>
    <rect x="1" y="1.5" width="0.5" height="0.5" fill="white"/>
  </pattern>
  <pattern id="dither-75" width="1" height="1" patternUnits="userSpaceOnUse">
    <rect width="1" height="1" fill="black"/>
    <rect width="0.5" height="0.5" fill="white"/>
  </pattern>
  <pattern id="dither-87" width="2" height="2" patternUnits="userSpaceOnUse">
    <rect width="2" height="2" fill="black"/>
    <rect width="0.5" height="0.5" fill="white"/>
    <rect x="1" y="1" width="0.5" height="0.5" fill="white"/>
  </pattern>
</defs><rect width="96" height="96" style="fill:none"/><path d="M46.7444,9.4224a27.7408,27.7408,0,1,1,0,39.2318,27.7412,27.7412,0,0,1,0-39.2318" style="fill:white;fill-rule:evenodd"/><g><path d="M68.6526,1.4067a40.46,40.46,0,0,0,1.6716,55.057,27.7153,27.7153,0,0,0-1.6716-55.057Z" style="fill:url(#dither-12);fill-rule:evenodd"/></g><path d="M87.6138,62.304a14.9053,14.9053,0,0,0-11.06-14.3919A10.5668,10.5668,0,0,0,63.4188,33.6494,23.689,23.689,0,0,0,16.94,39.2182a19.162,19.162,0,0,0,3.5252,37.998c.1814,0,.3567-.0221.537-.027v.027H72.8685v-.0084A14.9072,14.9072,0,0,0,87.6138,62.304Z" style="fill:url(#dither-25)"/></svg>