<svg xmlns="http://www.w3.org/2000/svg" width="96" height="96" viewBox="0 0 96 96"><defs>
  <pattern id="dither-12" width="2" height="2" patternUnits="userSpaceOnUse">
    <rect width="2" height="2" fill="white"/>
    <rect width="0.5" height="0.5" fill="black"/>
    <rect x="1" y="1" width="0.5" height="0.5" fill="black"/>
  </pattern>
  <pattern id="dither-25" width="1" height="1" patternUnits="userSpaceOnUse">
    <rect width="1" height="1" fill="white"/>
    <rect width="0.5" height="0.5" fill="black"/>
  </pattern>
  <pattern id="dither-37" width="2" height="2" patternUnits="userSpaceOnUse">
    <rect width="2" height="2" fill="white"/>
    <rect width="0.5" height="0.5" fill="black"/>
    <rect x="1" y="0" width="0.5" height="0.5" fill="black"/>
    <rect x="0.5" y="0.5" width="0.5" height="0.5" fill="black"/>
    <rect x="1.5" y="1" width="0.5" height="0.5" fill="black"/>
    <rect x="0" y="1.5" width="0.5" height="0.5" fill="black"/>
    <rect x="1" y="1.5" width="0.5" height="0.5" fill="black"/>
  </pattern>
  <pattern id="dither-50" width="1" height="1" patternUnits="userSpaceOnUse">
    <rect width="1" height="1" fill="white"/>
    <rect width="0.5" height="0.5" fill="black"/>
    <rect x="0.5" y="0.5" width="0.5" height="0.5" fill="black"/>
  </pattern>
  <pattern id="dither-62" width="2" height="2" patternUnits="userSpaceOnUse">
    <rect width="2" height="2" fill="black"/>
    <rect width="0.5" height="0.5" fill="white"/>
    <rect x="1" y="0" width="0.5" height="0.5" fill="white"/>
    <rect x="0.5" y="0.5" width="0.5" height="0.5" fill="white"/>
    <rect x="1.5" y="1" width="0.5" height="0.5" fill="white"/>
    <rect x="0" y="1.5" width="0.5" height="0.5" fill="white"/>
    <rect x="1" y="1.5" width="0.5" height="0.5" fill="white"/>
  </pattern>
  <pattern id="dither-75" width="1" height="1" patternUnits="userSpaceOnUse">
    <rect width="1" height="1" fill="black"/>
    <rect width="0.5" height="0.5" fill="white"/>
  </pattern>
  <pattern id="dither-87" width="2" height="2" patternUnits="userSpaceOnUse">
    <rect width="2" height="2" fill="black"/>
    <rect width="0.5" height="0.5" fill="white"/>
    <rect x="1" y="1" width="0.5" height="0.5" fill="white"/>
  </pattern>
</defs><rect width="96" height="96" style="fill:none"/><g><path d="M27.8455,89.1694a2.6,2.6,0,0,1-2.6-2.6V75.8379a2.6,2.6,0,1,1,5.1992,0V86.5693A2.6,2.6,0,0,1,27.8455,89.1694Z" style="fill:url(#dither-25)"/></g><g><path d="M27.8455,68.2466a2.6,2.6,0,0,1-2.6-2.6V57.3242a2.6,2.6,0,1,1,5.1992,0v8.3223A2.6,2.6,0,0,1,27.8455,68.2466Z" style="fill:url(#dither-25)"/></g><path d="M38.2234,85.0054a2.6,2.6,0,0,1-2.6-2.6V59.7026a2.6,2.6,0,1,1,5.1992,0V82.4053A2.6,2.6,0,0,1,38.2234,85.0054Z" style="fill:url(#dither-37)"/><path d="M48.6023,81.9243a2.6,2.6,0,0,1-2.6-2.6v-.4863a2.6,2.6,0,1,1,5.1992,0v.4863A2.6,2.6,0,0,1,48.6023,81.9243Z" style="fill:url(#dither-37)"/><path d="M48.6023,71.06a2.6,2.6,0,0,1-2.6-2.6V61.4326a2.6,2.6,0,1,1,5.1992,0V68.46A2.6,2.6,0,0,1,48.6023,71.06Z" style="fill:url(#dither-37)"/><g><path d="M17.4666,79.1675a2.6,2.6,0,0,1-2.6-2.6V55.4863a2.6,2.6,0,1,1,5.1992,0V76.5674A2.6,2.6,0,0,1,17.4666,79.1675Z" style="fill:url(#dither-25)"/></g><path d="M17.4666,89.5478a2.9075,2.9075,0,0,1-.51-.05,3.69,3.69,0,0,1-.48-.15,3.1877,3.1877,0,0,1-.45-.24,2.087,2.087,0,0,1-.4-.32,2.4009,2.4009,0,0,1-.3194-.4,1.9209,1.9209,0,0,1-.24-.45,2.0672,2.0672,0,0,1-.15-.48,2.2106,2.2106,0,0,1-.05-.51,2.6218,2.6218,0,0,1,.76-1.84,2.087,2.087,0,0,1,.4-.32,1.9593,1.9593,0,0,1,.45-.24,2.0428,2.0428,0,0,1,.48-.15,2.4954,2.4954,0,0,1,1.02,0,2.0545,2.0545,0,0,1,.48.15,1.9552,1.9552,0,0,1,.45.24,2.4743,2.4743,0,0,1,.4.32,2.6218,2.6218,0,0,1,.76,1.84,3.0144,3.0144,0,0,1-.05.51,2.0672,2.0672,0,0,1-.15.48,3.2938,3.2938,0,0,1-.24.45,2.3108,2.3108,0,0,1-.72.72,3.1768,3.1768,0,0,1-.45.24,3.7291,3.7291,0,0,1-.48.15A2.9167,2.9167,0,0,1,17.4666,89.5478Z" style="fill:url(#dither-37)"/><g><path d="M48.6023,92.4648a2.6,2.6,0,0,1-2.6-2.6v-.1621a2.6,2.6,0,1,1,5.1992,0v.1621A2.6,2.6,0,0,1,48.6023,92.4648Z" style="fill:url(#dither-25)"/></g><path d="M47.3654,7.3768a20.7566,20.7566,0,1,1,0,29.3546,20.7569,20.7569,0,0,1,0-29.3546" style="fill:white;fill-rule:evenodd"/><g><path d="M63.7579,1.3792a30.2736,30.2736,0,0,0,1.2507,41.1956A20.7376,20.7376,0,0,0,63.7579,1.3792Z" style="fill:url(#dither-12);fill-rule:evenodd"/></g><path d="M74.9144,47.5829a12.7123,12.7123,0,0,0-9.4329-12.2744A9.0122,9.0122,0,0,0,54.2792,23.1442a20.2037,20.2037,0,0,0-39.64,4.7495,16.3427,16.3427,0,0,0,3.0065,32.4075c.1547,0,.3042-.0189.458-.0231v.0231H62.3385V60.294A12.7139,12.7139,0,0,0,74.9144,47.5829Z" style="fill:url(#dither-37)"/></svg>