<svg xmlns="http://www.w3.org/2000/svg" width="96" height="96" viewBox="0 0 96 96"><defs>
  <pattern id="dither-12" width="2" height="2" patternUnits="userSpaceOnUse">
    <rect width="2" height="2" fill="white"/>
    <rect width="0.5" height="0.5" fill="black"/>
    <rect x="1" y="1" width="0.5" height="0.5" fill="black"/>
  </pattern>
  <pattern id="dither-25" width="1" height="1" patternUnits="userSpaceOnUse">
    <rect width="1" height="1" fill="white"/>
    <rect width="0.5" height="0.5" fill="black"/>
  </pattern>
  <pattern id="dither-37" width="2" height="2" patternUnits="userSpaceOnUse">
    <rect width="2" height="2" fill="white"/>
    <rect width="0.5" height="0.5" fill="black"/>
    <rect x="1" y="0" width="0.5" height="0.5" fill="black"/>
    <rect x="0.5" y="0.5" width="0.5" height="0.5" fill="black"/>
    <rect x="1.5" y="1" width="0.5" height="0.5" fill="black"/>
    <rect x="0" y="1.5" width="0.5" height="0.5" fill="black"/>
    <rect x="1" y="1.5" width="0.5" height="0.5" fill="black"/>
  </pattern>
  <pattern id="dither-50" width="1" height="1" patternUnits="userSpaceOnUse">
    <rect width="1" height="1" fill="white"/>
    <rect width="0.5" height="0.5" fill="black"/>
    <rect x="0.5" y="0.5" width="0.5" height="0.5" fill="black"/>
  </pattern>
  <pattern id="dither-62" width="2" height="2" patternUnits="userSpaceOnUse">
    <rect width="2" height="2" fill="black"/>
    <rect width="0.5" height="0.5" fill="white"/>
    <rect x="1" y="0" width="0.5" height="0.5" fill="white"/>
    <rect x="0.5" y="0.5" width="0.5" height="0.5" fill="white"/>
    <rect x="1.5" y="1" width="0.5" height="0.5" fill="white"/>
    <rect x="0" y="1.5" width="0.5" height="0.5" fill="white"/>
    <rect x="1" y="1.5" width="0.5" height="0.5" fill="white"/>
  </pattern>
  <pattern id="dither-75" width="1" height="1" patternUnits="userSpaceOnUse">
    <rect width="1" height="1" fill="black"/>
    <rect width="0.5" height="0.5" fill="white"/>
  </pattern>
  <pattern id="dither-87" width="2" height="2" patternUnits="userSpaceOnUse">
    <rect width="2" height="2" fill="black"/>
    <rect width="0.5" height="0.5" fill="white"/>
    <rect x="1" y="1" width="0.5" height="0.5" fill="white"/>
  </pattern>
</defs><rect width="96" height="96" style="fill:none"/><path d="M41.9232,84.33a2.6,2.6,0,0,1-2.6-2.6V58.0542a2.6,2.6,0,1,1,5.1992,0V81.73A2.6,2.6,0,0,1,41.9232,84.33Z" style="fill:url(#dither-37)"/><path d="M52.3021,77.9888a2.6,2.6,0,0,1-2.6-2.6V65.2265a2.6,2.6,0,1,1,5.1992,0V75.3887A2.6,2.6,0,0,1,52.3021,77.9888Z" style="fill:url(#dither-37)"/><g><path d="M31.5453,73.8808a2.6,2.6,0,0,1-2.6-2.6V57.4429a2.6,2.6,0,1,1,5.1992,0V71.2807A2.6,2.6,0,0,1,31.5453,73.8808Z" style="fill:url(#dither-25)"/></g><g><path d="M31.5453,84.2861a2.607,2.607,0,1,1,2.6-2.6274v.0273A2.6,2.6,0,0,1,31.5453,84.2861Z" style="fill:url(#dither-25)"/></g><path d="M78.262,32.6237A13.7677,13.7677,0,0,0,65.3273,14.0544c-.3056,0-.6045.0262-.9053.0458a18.153,18.153,0,1,0-34.5984,10.998v28.16H73.8219a10.7938,10.7938,0,0,0,4.44-20.6341Z" style="fill:url(#dither-37)"/><g><path d="M28.96,18.5948c-.0133.286-.043.5679-.043.8572a18.1276,18.1276,0,0,0,.9064,5.6461v28.16H69.676c1.8377-4.7757,1.5925-10.6327-2.5382-17.76C55.7792,15.8978,39.1325,14.0215,28.96,18.5948Z" style="fill:url(#dither-12)"/></g><path d="M70.325,20.008H61.44L69.9044,9.4493a2.3351,2.3351,0,0,0-3.6439-2.9212L54.7533,20.8823a2.3354,2.3354,0,0,0,1.8221,3.796h9.2075l-14.18,20.636a.9562.9562,0,0,0,1.5221,1.1542L72.0784,23.7541A2.2832,2.2832,0,0,0,70.325,20.008Z" style="fill:url(#dither-12)"/><path d="M65.9236,48.4438a11.16,11.16,0,0,0-8.2808-10.7754A7.9115,7.9115,0,0,0,47.8085,26.99a17.7362,17.7362,0,0,0-34.7991,4.1694,14.3468,14.3468,0,0,0,2.6393,28.45c.1359,0,.2671-.0165.4021-.02v.02H54.8836v-.0063A11.1611,11.1611,0,0,0,65.9236,48.4438Z" style="fill:url(#dither-62)"/><path d="M27.5446,46.3135H18.66l8.4641-10.5586A2.3351,2.3351,0,1,0,23.48,32.8337L11.9726,47.1879a2.3353,2.3353,0,0,0,1.8221,3.7959h9.2075L8.8218,71.62a.9563.9563,0,0,0,1.5225,1.1543L29.2977,50.06a2.2832,2.2832,0,0,0-1.7531-3.7461Z" style="fill:url(#dither-25)"/></svg>