<svg xmlns="http://www.w3.org/2000/svg" width="96" height="96" viewBox="0 0 96 96"><defs>
  <pattern id="dither-12" width="2" height="2" patternUnits="userSpaceOnUse">
    <rect width="2" height="2" fill="white"/>
    <rect width="0.5" height="0.5" fill="black"/>
    <rect x="1" y="1" width="0.5" height="0.5" fill="black"/>
  </pattern>
  <pattern id="dither-25" width="1" height="1" patternUnits="userSpaceOnUse">
    <rect width="1" height="1" fill="white"/>
    <rect width="0.5" height="0.5" fill="black"/>
  </pattern>
  <pattern id="dither-37" width="2" height="2" patternUnits="userSpaceOnUse">
    <rect width="2" height="2" fill="white"/>
    <rect width="0.5" height="0.5" fill="black"/>
    <rect x="1" y="0" width="0.5" height="0.5" fill="black"/>
    <rect x="0.5" y="0.5" width="0.5" height="0.5" fill="black"/>
    <rect x="1.5" y="1" width="0.5" height="0.5" fill="black"/>
    <rect x="0" y="1.5" width="0.5" height="0.5" fill="black"/>
    <rect x="1" y="1.5" width="0.5" height="0.5" fill="black"/>
  </pattern>
  <pattern id="dither-50" width="1" height="1" patternUnits="userSpaceOnUse">
    <rect width="1" height="1" fill="white"/>
    <rect width="0.5" height="0.5" fill="black"/>
    <rect x="0.5" y="0.5" width="0.5" height="0.5" fill="black"/>
  </pattern>
  <pattern id="dither-62" width="2" height="2" patternUnits="userSpaceOnUse">
    <rect width="2" height="2" fill="black"/>
    <rect width="0.5" height="0.5" fill="white"/>
    <rect x="1" y="0" width="0.5" height="0.5" fill="white"/>
    <rect x="0.5" y="0.5" width="0.5" height="0.5" fill="white"/>
    <rect x="1.5" y="1" width="0.5" height="0.5" fill="white"/>
    <rect x="0" y="1.5" width="0.5" height="0.5" fill="white"/>
    <rect x="1" y="1.5" width="0.5" height="0.5" fill="white"/>
  </pattern>
  <pattern id="dither-75" width="1" height="1" patternUnits="userSpaceOnUse">
    <rect width="1" height="1" fill="black"/>
    <rect width="0.5" height="0.5" fill="white"/>
  </pattern>
  <pattern id="dither-87" width="2" height="2" patternUnits="userSpaceOnUse">
    <rect width="2" height="2" fill="black"/>
    <rect width="0.5" height="0.5" fill="white"/>
    <rect x="1" y="1" width="0.5" height="0.5" fill="white"/>
  </pattern>
</defs><g><path d="M74.0869,45.4184H57.4433a2.6,2.6,0,0,1,0-5.2H74.0869A5.04,5.04,0,0,0,77.65,31.6147a2.6,2.6,0,1,1,3.6777-3.6767,10.24,10.24,0,0,1-7.2412,17.48Z" style="fill:url(#dither-25)"/></g><path d="M64.7656,68.4214a2.6,2.6,0,0,1-1.8389-4.4385,4.7952,4.7952,0,0,0-3.3906-8.186H46.2685a2.6,2.6,0,0,1,0-5.2H59.5361A9.9958,9.9958,0,0,1,66.6045,67.66,2.5931,2.5931,0,0,1,64.7656,68.4214Z" style="fill:url(#dither-25)"/><g><path d="M35.8906,55.7969H3.459a2.6,2.6,0,0,1,0-5.2H35.8906a2.6,2.6,0,0,1,0,5.2Z" style="fill:url(#dither-12)"/></g><path d="M47.0654,45.4184H31.8222a2.6,2.6,0,0,1,0-5.2H47.0654a2.6,2.6,0,0,1,0,5.2Z" style="fill:url(#dither-25)"/><g><path d="M51.8779,71.5259a2.6,2.6,0,0,1-2.6-2.6,2.7544,2.7544,0,0,0-2.7519-2.751H12.8838a2.6,2.6,0,0,1,0-5.2H46.5264a7.96,7.96,0,0,1,7.9511,7.9512A2.6,2.6,0,0,1,51.8779,71.5259Z" style="fill:url(#dither-25)"/></g><path d="M63.5654,35.0405H38.6728a2.6,2.6,0,0,1,0-5.2H63.5654a2.7507,2.7507,0,0,0,1.9453-4.6968,2.8082,2.8082,0,0,0-3.3232-.436,2.6,2.6,0,0,1-2.6153-4.4951,7.9517,7.9517,0,1,1,3.9932,14.8281Z" style="fill:url(#dither-25)"/><circle cx="76.1255" cy="53.1965" r="2.6" style="fill:url(#dither-25)"/><circle cx="26.6137" cy="32.4405" r="2.6" style="fill:url(#dither-25)"/><g><path d="M21.4443,45.4184H11.0664a2.6,2.6,0,0,1,0-5.2H21.4443a2.6,2.6,0,0,1,0,5.2Z" style="fill:url(#dither-12)"/></g><rect y="0.0092" width="95.9968" height="95.9968" style="fill:none"/></svg>