<?xml version="1.0" encoding="UTF-8"?>
<!-- Created with Inkscape (http://www.inkscape.org/) -->
<svg width="800" height="480" version="1.1" viewBox="0 0 800 480" xml:space="preserve" xmlns="http://www.w3.org/2000/svg"><g stroke-width="0"><g font-family="'Google Sans Flex'"><text x="617.70905" y="358.53989" font-size="18.667px" style="font-variant-caps:normal;font-variant-east-asian:normal;font-variant-ligatures:normal;font-variant-numeric:normal;font-variation-settings:'opsz' 144, 'wght' 500" xml:space="preserve"><tspan x="617.70905" y="358.53989" fill="#000000" font-family="'Google Sans Flex'" font-size="18.667px" stroke-width="0" style="font-variant-caps:normal;font-variant-east-asian:normal;font-variant-ligatures:normal;font-variant-numeric:normal;font-variation-settings:'opsz' 144, 'wght' 500">Feels like</tspan></text><text x="460.39111" y="66.921066" font-size="24px" style="font-variant-caps:normal;font-variant-east-asian:normal;font-variant-ligatures:normal;font-variant-numeric:normal;font-variation-settings:'opsz' 144, 'wght' 500" xml:space="preserve"><tspan x="460.39111" y="66.921066" fill="#000000" font-family="'Google Sans Flex'" font-size="24px" stroke-width="0" style="font-variant-caps:normal;font-variant-east-asian:normal;font-variant-ligatures:normal;font-variant-numeric:normal;font-variation-settings:'opsz' 144, 'wght' 500">mm</tspan></text><text x="604.52563" y="66.921074" font-size="24px" style="font-variant-caps:normal;font-variant-east-asian:normal;font-variant-ligatures:normal;font-variant-numeric:normal;font-variation-settings:'opsz' 144, 'wght' 500" xml:space="preserve"><tspan x="604.52563" y="66.921074" fill="#000000" font-family="'Google Sans Flex'" font-size="24px" stroke-width="0" style="font-variant-caps:normal;font-variant-east-asian:normal;font-variant-ligatures:normal;font-variant-numeric:normal;font-variation-settings:'opsz' 144, 'wght' 500">%</tspan></text><g font-size="16px"><text x="425.18533" y="88.682945" style="font-variant-caps:normal;font-variant-east-asian:normal;font-variant-ligatures:normal;font-variant-numeric:normal;font-variation-settings:'opsz' 144, 'wght' 500" xml:space="preserve"><tspan x="425.18533" y="88.682945" fill="#000000" font-family="'Google Sans Flex'" font-size="16px" stroke-width="0" style="font-variant-caps:normal;font-variant-east-asian:normal;font-variant-ligatures:normal;font-variant-numeric:normal;font-variation-settings:'opsz' 144, 'wght' 500">Rain</tspan></text><text x="534.73199" y="88.682945" style="font-variant-caps:normal;font-variant-east-asian:normal;font-variant-ligatures:normal;font-variant-numeric:normal;font-variation-settings:'opsz' 144, 'wght' 500" xml:space="preserve"><tspan x="534.73199" y="88.682945" fill="#000000" font-family="'Google Sans Flex'" font-size="16px" stroke-width="0" style="font-variant-caps:normal;font-variant-east-asian:normal;font-variant-ligatures:normal;font-variant-numeric:normal;font-variation-settings:'opsz' 144, 'wght' 500">Humidity</tspan></text><text x="726.26501" y="88.666275" style="font-variant-caps:normal;font-variant-east-asian:normal;font-variant-ligatures:normal;font-variant-numeric:normal;font-variation-settings:'opsz' 144, 'wght' 500" xml:space="preserve"><tspan x="726.26501" y="88.666275" fill="#000000" font-family="'Google Sans Flex'" font-size="16px" stroke-width="0" style="font-variant-caps:normal;font-variant-east-asian:normal;font-variant-ligatures:normal;font-variant-numeric:normal;font-variation-settings:'opsz' 144, 'wght' 500">Max</tspan></text></g><text id="forecast_rain" x="455.62497" y="66.921066" font-size="48px" text-align="end" text-anchor="end" style="font-variant-caps:normal;font-variant-east-asian:normal;font-variant-ligatures:normal;font-variant-numeric:normal;font-variation-settings:'opsz' 144, 'wght' 500" xml:space="preserve"><tspan x="455.62497" y="66.921066" fill="#000000" font-family="'Google Sans Flex'" font-size="48px" stroke-width="0" style="font-variant-caps:normal;font-variant-east-asian:normal;font-variant-ligatures:normal;font-variant-numeric:normal;font-variation-settings:'opsz' 144, 'wght' 500">0-12</tspan></text></g><text id="temp_main" x="772.13519" y="321.10077" font-size="166.52px" text-align="end" text-anchor="end" style="font-variant-caps:normal;font-variant-east-asian:normal;font-variant-ligatures:normal;font-variant-numeric:normal;font-variation-settings:'opsz' 144, 'wght' 500" xml:space="preserve"><tspan x="772.13519" y="321.10077" fill="#000000" font-family="'Google Sans Flex'" font-size="166.52px" stroke-width="0" style="font-variant-caps:normal;font-variant-east-asian:normal;font-variant-ligatures:normal;font-variant-numeric:normal;font-variation-settings:'opsz' 144, 'wght' 500">25.8°</tspan></text><g font-family="'Google Sans Flex'"><g font-size="48px" text-anchor="end"><text id="forecast_humidity" x="601.9292" y="66.87252" text-align="end" style="font-variant-caps:normal;font-variant-east-asian:normal;font-variant-ligatures:normal;font-variant-numeric:normal;font-variation-settings:'opsz' 144, 'wght' 500" xml:space="preserve"><tspan x="601.9292" y="66.87252" fill="#000000" font-family="'Google Sans Flex'" font-size="48px" stroke-width="0" style="font-variant-caps:normal;font-variant-east-asian:normal;font-variant-ligatures:normal;font-variant-numeric:normal;font-variation-settings:'opsz' 144, 'wght' 500">79</tspan></text><text id="temp_max" x="774.80542" y="66.872513" text-align="end" style="font-variant-caps:normal;font-variant-east-asian:normal;font-variant-ligatures:normal;font-variant-numeric:normal;font-variation-settings:'opsz' 144, 'wght' 500" xml:space="preserve"><tspan x="774.80542" y="66.872513" fill="#000000" font-family="'Google Sans Flex'" font-size="48px" stroke-width="0" style="font-variant-caps:normal;font-variant-east-asian:normal;font-variant-ligatures:normal;font-variant-numeric:normal;font-variation-settings:'opsz' 144, 'wght' 500">28°</tspan></text><text id="forecast_summary" x="768.08038" y="443.43683" text-align="end" style="font-variant-caps:normal;font-variant-east-asian:normal;font-variant-ligatures:normal;font-variant-numeric:normal;font-variation-settings:'opsz' 144, 'wght' 500" xml:space="preserve"><tspan>Paasdfdsartly clodjkadudy.</tspan></text></g><text id="suburb" x="23.920702" y="447.85617" font-size="32px" style="font-variant-caps:normal;font-variant-east-asian:normal;font-variant-ligatures:normal;font-variant-numeric:normal;font-variation-settings:'opsz' 144, 'wght' 500" xml:space="preserve"><tspan x="23.920702" y="447.85617" fill="#000000" font-family="'Google Sans Flex'" font-size="32px" stroke-width="0" style="font-variant-caps:normal;font-variant-east-asian:normal;font-variant-ligatures:normal;font-variant-numeric:normal;font-variation-settings:'opsz' 144, 'wght' 500">Greenslopes</tspan></text><text id="temp_feels_like" x="700.76538" y="358.06985" font-size="34.667px" style="font-variant-caps:normal;font-variant-east-asian:normal;font-variant-ligatures:normal;font-variant-numeric:normal;font-variation-settings:'opsz' 144, 'wght' 500" xml:space="preserve"><tspan x="700.76538" y="358.06985" fill="#000000" font-family="'Google Sans Flex'" font-size="34.667px" stroke-width="0" style="font-variant-caps:normal;font-variant-east-asian:normal;font-variant-ligatures:normal;font-variant-numeric:normal;font-variation-settings:'opsz' 144, 'wght' 500">26.1°</tspan></text></g><g id="icon_container" transform="matrix(3.5,0,0,3.5,22,30)" fill="none"><rect width="96" height="96" fill="none" style="font-variation-settings:'opsz' 144, 'wght' 500"/>


				 </g><g transform="matrix(.078472 0 0 .078472 29.793 356.46)" stroke-width="0"><path d="m218.3 477.8c-9.7067 0-19.63 1.48-28.04 4.74-4.1267 1.5967-9.1733 4.1167-13.617 8.1867-4.46 4.09-10.223 11.657-10.223 22.49 0 10.833 5.7633 18.4 10.223 22.487 4.4433 4.0733 9.49 6.59 13.617 8.19 8.41 3.26 18.333 4.74 28.04 4.74 9.71 0 19.63-1.48 28.043-4.74 4.1233-1.6 9.17-4.1167 13.613-8.19 4.4633-4.0867 10.227-11.653 10.227-22.487 0-10.833-5.7633-18.4-10.227-22.49-4.4433-4.07-9.49-6.59-13.613-8.1867-8.4133-3.26-18.333-4.74-28.043-4.74z" clip-rule="evenodd" fill-rule="evenodd"/><path d="m285.53 401.44c5.5-8.88 16.363-19.463 32.66-19.463 16.293 0 27.157 10.583 32.657 19.463 5.7367 9.2633 8.47 20.493 8.47 31.58 0 11.083-2.7333 22.313-8.47 31.577-5.5 8.88-16.363 19.463-32.657 19.463-16.297 0-27.16-10.583-32.66-19.463-5.7367-9.2633-8.47-20.493-8.47-31.577 0-11.087 2.7333-22.317 8.47-31.58z"/><path d="m118.19 381.97c-16.294 0-27.158 10.583-32.659 19.463-5.7377 9.2633-8.4703 20.493-8.4703 31.58 0 11.083 2.7327 22.313 8.4703 31.577 5.501 8.88 16.364 19.463 32.659 19.463 16.295 0 27.158-10.583 32.659-19.463 5.7367-9.2633 8.47-20.493 8.47-31.577 0-11.087-2.7333-22.317-8.47-31.58-5.5007-8.88-16.364-19.463-32.659-19.463z"/><path d="m20.808 121.56c-20.446 0-44.007 5.957-62.868 22.205-19.552 16.845-31.293 42.388-31.293 75.711v62.5l3.4e-4 0.0983c0.0383 9.7987 1.7017 29.404 7.2917 45.792 1.8283 5.3633 4.7497 12.473 9.628 18.887-9.4667 18.767-13.953 38.123-15.992 56.79-1.7023 15.587-1.7253 31.947-1.4543 47.053-22.035 7.6533-44.849 17.127-55.368 23.92-11.599 7.49-14.929 22.967-7.438 34.563 7.4907 11.6 22.966 14.93 34.564 7.44 3.8807-2.5067 15.329-7.7467 30.39-13.497 2.296 15.97 6.9497 30.52 13.448 43.747-5.1963 3.24-9.7877 6.24-13.44 8.63-1.3983 0.91333-2.659 1.7367-3.7633 2.45-11.599 7.49-14.929 22.967-7.438 34.563 7.4907 11.6 22.966 14.93 34.564 7.44 1.3707-0.88666 2.8317-1.84 4.3733-2.8467 4.3727-2.8533 9.3963-6.1333 14.868-9.4867 19.651 20.083 44.055 35.587 69.405 47.247 59.361 27.307 129.66 36.793 177.36 36.793 47.7 0 118-9.4867 177.36-36.793 25.35-11.66 49.753-27.163 69.403-47.247 5.4733 3.3533 10.497 6.6333 14.867 9.4867 1.5433 1.0067 3.0033 1.96 4.3733 2.8467 11.6 7.49 27.073 4.16 34.567-7.44 7.49-11.597 4.16-27.073-7.44-34.563-1.1033-0.71333-2.3633-1.5367-3.7633-2.45-3.6533-2.39-8.2433-5.39-13.437-8.63 6.4967-13.227 11.153-27.777 13.447-43.75 15.067 5.75 26.52 10.993 30.403 13.5 11.597 7.49 27.073 4.16 34.563-7.44 7.49-11.597 4.16-27.073-7.4367-34.563-10.523-6.7933-33.343-16.27-55.383-23.923 0.27334-15.107 0.25-31.467-1.4533-47.05-2.0367-18.667-6.5267-38.023-15.993-56.79 4.88-6.4133 7.8-13.523 9.63-18.887 5.59-16.387 7.2533-35.993 7.29-45.792l3e-3 -0.0983v-62.496c0-33.323-11.743-58.866-31.293-75.711-18.86-16.249-42.423-22.206-62.867-22.206-13.617 0-27.7 5.2247-39.057 10.355-12.037 5.4387-24.617 12.505-35.93 19.02-2.4333 1.401-4.7967 2.7693-7.0933 4.0987l-0.0667 0.0387c-8.8 5.0973-16.61 9.6207-23.57 13.206-4.3233 2.2277-7.68 3.7543-10.18 4.6797-1.0533 0.39034-1.7267 0.58667-2.0733 0.67867-8.4467-0.0467-13.83-0.73633-21.607-1.7327-1.6667-0.21366-3.4467-0.44166-5.39-0.68033-11.553-1.42-26.14-2.789-51.877-2.789s-40.32 1.369-51.877 2.789c-1.9433 0.23867-3.72 0.46667-5.39 0.68033-7.7733 0.99634-13.157 1.686-21.607 1.7327-0.34533-0.092-1.0187-0.28867-2.0713-0.67867-2.4987-0.92533-5.8567-2.4523-10.18-4.68-6.9593-3.586-14.767-8.108-23.569-13.206-2.317-1.3417-4.7027-2.7237-7.16-4.1387-11.315-6.516-23.894-13.583-35.931-19.022-11.355-5.1307-25.441-10.356-39.056-10.356zm2.2357 445.46c11.134 8.3967 23.963 15.803 38.137 22.323 51.03 23.473 113.73 32.217 156.47 32.217s105.44-8.7433 156.47-32.217c14.177-6.52 27.003-13.927 38.137-22.323-11.747-2.0467-20.677-12.293-20.677-24.627 0-13.807 11.193-25 25-25 10.907 0 22.053 2.7267 32.4 6.5133 5.2867-11.063 8.5333-23.18 9.4233-36.443-9.9233-2.4233-16.777-3.4033-20.307-3.4033-13.807 0-25-11.193-25-25 0-13.807 11.193-25 25-25 6.49 0 13.833 0.97334 21.233 2.4133 3e-3 -9.2033-0.29667-18.24-1.3067-27.5-2.35-21.513-8.44-40.61-22.81-57.59-5.14-6.0733-11.533-12.113-19.557-18.007-11.13-8.17-13.527-23.817-5.3533-34.946 8.17-11.129 23.817-13.527 34.947-5.355 3.97 2.9153 7.7233 5.912 11.263 8.9867 1.4667-7.6067 2.12-15.563 2.1433-20.14v-62.442c0-20.843-6.88-31.758-13.93-37.83-7.74-6.668-18.757-10.086-30.23-10.086-2.3467 0-8.2133 1.2857-18.47 5.92-9.5767 4.3263-20.27 10.28-31.567 16.785-2.12 1.2217-4.28 2.473-6.4567 3.7343-8.9267 5.1717-18.153 10.518-26.323 14.727-5.1533 2.6547-10.523 5.1967-15.713 7.1193-4.79 1.775-11.417 3.7943-18.513 3.7943-12.393 0-21.08-1.1243-29.42-2.2033-1.5367-0.199-3.0633-0.397-4.6-0.58566-9.6233-1.1823-22.17-2.4157-45.78-2.4157-23.607 0-36.157 1.2333-45.78 2.4157-1.5333 0.18866-3.06 0.38633-4.6 0.58533-8.3367 1.0793-17.025 2.2037-29.42 2.2037-7.0947 0-13.722-2.0197-18.514-3.7947-5.1907-1.9227-10.561-4.465-15.714-7.12-8.1683-4.2087-17.395-9.5557-26.32-14.727-2.1777-1.262-4.3377-2.5137-6.4597-3.7357-11.296-6.505-21.992-12.459-31.567-16.786-10.258-4.635-16.122-5.9203-18.468-5.9203-11.474 0-22.493 3.418-30.233 10.086-7.048 6.072-13.928 16.987-13.928 37.83v62.446c0.022 4.577 0.67367 12.533 2.1403 20.139 3.5427-3.075 7.2947-6.0713 11.265-8.9867 11.129-8.1717 26.776-5.774 34.947 5.3553 8.1717 11.129 5.7743 26.776-5.355 34.946-8.0237 5.8933-14.416 11.933-19.555 18.007-14.369 16.98-20.461 36.077-22.81 57.59-1.0117 9.26-1.3113 18.297-1.3083 27.503 7.4057-1.44 14.752-2.4167 21.248-2.4167 13.807 0 25 11.193 25 25 0 13.807-11.193 25-25 25-3.5327 0-10.39 0.98-20.32 3.4033 0.892 13.263 4.1367 25.38 9.423 36.44 10.347-3.7833 21.492-6.51 32.399-6.51 13.807 0 25 11.193 25 25 0 12.333-8.9303 22.58-20.677 24.627z" clip-rule="evenodd" fill-rule="evenodd"/></g><g transform="matrix(.096685 0 0 .096685 97.574 358.21)">
	<path class="st0" d="m439.46 51.073c-6.026-13.266-13.941-25.629-24.903-35.19-10.87-9.57-25.367-15.967-41.621-15.882-8.295-8e-3 -16.126 1.739-23.054 4.751-12.177 5.3-21.367 14.101-28.414 23.535-10.548 14.212-16.793 30.254-20.759 42.912-1.055 3.409-1.933 6.548-2.667 9.375h-84.102c-2.127-8.312-5.612-19.578-11.063-31.308-5.291-11.232-12.354-22.954-22.658-32.532-5.148-4.768-11.164-8.978-18.11-11.983-6.929-3.012-14.768-4.76-23.055-4.751-16.16-0.085-30.615 6.135-41.519 15.544-16.446 14.195-26.226 34.406-32.631 55.309-6.321 20.987-9.013 42.945-9.03 61.696v181.93c8e-3 15.916 2.482 35.696 8.616 56.894 9.215 31.713 26.785 66.751 57.671 94.21 30.81 27.494 75.021 46.515 133.83 46.414 39.215 0.016 71.933-8.312 98.523-22.144 39.966-20.742 65.544-53.434 80.802-86.068 15.3-32.768 20.759-65.485 20.801-89.307v-181.93c-0.076-24.193-4.725-54.86-16.658-81.475zm-14.531 263.41c8e-3 12.666-2.068 29.924-7.384 48.202-7.966 27.493-23.106 57.148-48.414 79.569-25.375 22.397-60.844 38.456-113.14 38.557-34.86-0.016-62.236-7.274-84.135-18.625-32.768-17.029-53.789-43.67-66.945-71.636-8.506-18.059-13.468-36.625-15.907-52.675h64.574c49.443 0 82.405-47.586 82.405-86.042v-140.08h87.874l2.109-13.097c0.025-0.414 3.392-19.536 11.797-37.012 4.144-8.735 9.528-16.92 15.469-22.27 2.979-2.7 6.033-4.725 9.198-6.076 3.198-1.35 6.523-2.102 10.506-2.11 8.439 0.084 14.734 2.768 21.173 8.245 9.553 8.118 17.908 23.586 23.114 41.198 5.308 17.518 7.73 36.928 7.706 51.915-1e-3 28.592-1e-3 140.35-1e-3 181.93z"/>
	<path class="st0" d="m253.4 350.86c-22.963 0-41.579 13.975-41.579 31.19 0 17.224 18.616 31.19 41.579 31.19 22.97 0 41.586-13.966 41.586-31.19 1e-3 -17.215-18.615-31.19-41.586-31.19z"/>
	<circle class="st0" cx="333.97" cy="249.5" r="25.992"/>
	<path class="st0" d="m372.08 71.039c-17.316 0-20.793 36.388-20.793 36.388h38.126c0-1e-3 -0.017-36.388-17.333-36.388z"/>
</g></g><style type="text/css">
	.st0{fill:#000000;}
</style></svg>
